<?xml version="1.0" encoding="UTF-8"?>
<svg height="16px" viewBox="0 0 16 16" width="16px" xmlns="http://www.w3.org/2000/svg">
    <path d="m 8 0 c -4.414062 0.0546875 -7.9921875 3.679688 -7.9921875 8.097656 c 0 4.417969 3.5781255 7.957032 7.9921875 7.902344 c 4.195312 -0.015625 3.210938 -2.34375 7.847656 -0.191406 c -2.539062 -3.96875 0.085938 -4.496094 0.144532 -7.90625 c 0 -4.417969 -3.578126 -7.9570315 -7.992188 -7.902344 z m -0.027344 2.332031 c 0.859375 0 1.609375 0.117188 2.246094 0.355469 c 0.644531 0.234375 0.964844 0.5625 0.964844 0.976562 c 0 0.199219 -0.078125 0.367188 -0.234375 0.5 c -0.15625 0.128907 -0.335938 0.195313 -0.546875 0.195313 c -0.296875 0 -0.648438 -0.179687 -1.054688 -0.542969 c -0.410156 -0.371094 -0.757812 -0.628906 -1.042968 -0.773437 c -0.28125 -0.152344 -0.609376 -0.230469 -0.988282 -0.230469 c -0.480468 0 -0.875 0.085938 -1.1875 0.261719 c -0.308594 0.171875 -0.460937 0.394531 -0.460937 0.660156 c 0 0.253906 0.125 0.492187 0.378906 0.710937 c 0.253906 0.222657 0.910156 0.625 1.964844 1.207032 c 1.125 0.628906 1.917969 1.117187 2.382812 1.46875 c 0.46875 0.351562 0.847657 0.78125 1.140625 1.285156 c 0.292969 0.507812 0.441406 1.039062 0.441406 1.605469 c 0 0.988281 -0.433593 1.859375 -1.300781 2.617187 c -0.859375 0.753906 -1.863281 1.128906 -3.015625 1.128906 c -1.046875 0 -1.933594 -0.300781 -2.65625 -0.90625 c -0.722656 -0.605468 -1.082031 -1.414062 -1.082031 -2.421874 c 0 -0.972657 0.394531 -1.789063 1.191406 -2.441407 c 0.796875 -0.652343 1.78125 -1.046875 2.945313 -1.183593 c -0.324219 -0.292969 -0.777344 -0.644532 -1.355469 -1.054688 c -0.636719 -0.453125 -1.066406 -0.808594 -1.289063 -1.066406 c -0.222656 -0.261719 -0.332031 -0.550782 -0.332031 -0.859375 c 0 -0.464844 0.265625 -0.828125 0.800781 -1.089844 c 0.535157 -0.269531 1.230469 -0.402344 2.089844 -0.402344 z m 0.515625 4.835938 c -1.867187 0.25 -2.800781 1.285156 -2.800781 3.109375 c 0 0.941406 0.230469 1.675781 0.691406 2.195312 c 0.46875 0.519532 1.015625 0.78125 1.632813 0.78125 c 0.644531 0 1.175781 -0.25 1.589843 -0.75 c 0.417969 -0.503906 0.625 -1.1875 0.625 -2.042968 c 0 -1.242188 -0.578124 -2.339844 -1.738281 -3.292969 z m 0 0" fill="#222222"/>
</svg>
