<?xml version="1.0" encoding="UTF-8"?>
<svg height="16px" viewBox="0 0 16 16" width="16px" xmlns="http://www.w3.org/2000/svg">
    <path d="m 5.660156 0 l -1.328125 1.511719 s -1.171875 -0.324219 -1.722656 0.226562 c -0.550781 0.554688 -1.007813 1.042969 -1.007813 1.042969 l 0.359376 0.875 l -0.457032 1.300781 s 1.339844 5.074219 1.496094 5.691407 c 0.308594 1.21875 0.519531 1.691406 1.394531 2.308593 c 0.878907 0.617188 2.46875 1.691407 2.730469 1.851563 c 0.257812 0.164062 0.582031 0.441406 0.875 0.441406 s 0.617188 -0.277344 0.875 -0.441406 c 0.261719 -0.160156 1.851562 -1.234375 2.730469 -1.851563 c 0.875 -0.617187 1.085937 -1.089843 1.394531 -2.308593 c 0.15625 -0.617188 1.496094 -5.691407 1.496094 -5.691407 l -0.457032 -1.300781 l 0.359376 -0.875 s -0.457032 -0.488281 -1.007813 -1.042969 c -0.550781 -0.550781 -1.722656 -0.226562 -1.722656 -0.226562 l -1.328125 -1.511719 z m 2.339844 2.324219 s 0.261719 0 0.648438 0.132812 c 0.390624 0.128907 0.8125 0.289063 1.007812 0.289063 s 1.640625 -0.273438 1.640625 -0.273438 s 1.710937 2.070313 1.710937 2.515625 c 0 0.441407 -0.214843 0.558594 -0.429687 0.789063 c -0.21875 0.230468 -1.164063 1.234375 -1.285156 1.367187 c -0.121094 0.128907 -0.375 0.324219 -0.226563 0.675781 c 0.148438 0.351563 0.367188 0.800782 0.125 1.253907 c -0.246094 0.457031 -0.664062 0.761719 -0.929687 0.710937 c -0.269531 -0.050781 -0.898438 -0.378906 -1.128907 -0.53125 c -0.230468 -0.148437 -0.964843 -0.753906 -0.964843 -0.988281 c 0 -0.230469 0.757812 -0.644531 0.898437 -0.742187 c 0.140625 -0.09375 0.777344 -0.457032 0.792969 -0.601563 c 0.011719 -0.144531 0.007813 -0.1875 -0.183594 -0.542969 c -0.1875 -0.351562 -0.527343 -0.828125 -0.46875 -1.140625 c 0.054688 -0.316406 0.601563 -0.480469 0.992188 -0.628906 c 0.390625 -0.144531 1.144531 -0.425781 1.238281 -0.46875 s 0.070312 -0.085937 -0.214844 -0.113281 s -1.09375 -0.132813 -1.457031 -0.03125 c -0.363281 0.101562 -0.984375 0.257812 -1.035156 0.339844 c -0.050781 0.082031 -0.097657 0.082031 -0.042969 0.367187 c 0.050781 0.28125 0.316406 1.640625 0.34375 1.878906 c 0.023438 0.242188 0.074219 0.402344 -0.183594 0.460938 c -0.261718 0.058593 -0.699218 0.164062 -0.847656 0.164062 s -0.585938 -0.105469 -0.847656 -0.164062 c -0.257813 -0.058594 -0.207032 -0.21875 -0.183594 -0.460938 c 0.027344 -0.238281 0.292969 -1.597656 0.34375 -1.878906 c 0.054688 -0.285156 0.007812 -0.285156 -0.042969 -0.367187 c -0.050781 -0.082032 -0.671875 -0.238282 -1.035156 -0.339844 c -0.363281 -0.101563 -1.171875 0.007812 -1.457031 0.03125 c -0.285156 0.027344 -0.308594 0.070312 -0.214844 0.113281 s 0.847656 0.324219 1.238281 0.46875 c 0.390625 0.148437 0.9375 0.3125 0.992188 0.628906 c 0.058593 0.3125 -0.28125 0.789063 -0.46875 1.140625 c -0.191407 0.355469 -0.195313 0.398438 -0.183594 0.542969 c 0.015625 0.144531 0.652344 0.507813 0.792969 0.601563 c 0.140625 0.097656 0.898437 0.511718 0.898437 0.742187 c 0 0.234375 -0.734375 0.839844 -0.964843 0.988281 c -0.230469 0.152344 -0.859376 0.480469 -1.128907 0.53125 c -0.265625 0.050782 -0.683593 -0.253906 -0.929687 -0.710937 c -0.242188 -0.453125 -0.023438 -0.902344 0.125 -1.253907 c 0.148437 -0.351562 -0.105469 -0.546874 -0.226563 -0.675781 c -0.121093 -0.132812 -1.066406 -1.136719 -1.285156 -1.367187 c -0.214844 -0.230469 -0.429687 -0.347656 -0.429687 -0.789063 c 0 -0.445312 1.710937 -2.515625 1.710937 -2.515625 s 1.445313 0.273438 1.640625 0.273438 s 0.617188 -0.160156 1.007812 -0.289063 c 0.386719 -0.132812 0.648438 -0.132812 0.648438 -0.132812 z m 0 7.167969 c 0.089844 0 0.660156 0.199218 1.117188 0.4375 c 0.457031 0.238281 0.789062 0.402343 0.894531 0.46875 c 0.105469 0.066406 0.042969 0.195312 -0.054688 0.261718 c -0.097656 0.070313 -1.394531 1.074219 -1.519531 1.1875 c -0.125 0.109375 -0.3125 0.292969 -0.4375 0.292969 s -0.3125 -0.183594 -0.4375 -0.292969 c -0.125 -0.113281 -1.421875 -1.117187 -1.519531 -1.1875 c -0.097657 -0.066406 -0.160157 -0.195312 -0.054688 -0.261718 c 0.105469 -0.066407 0.4375 -0.230469 0.894531 -0.46875 c 0.457032 -0.238282 1.027344 -0.4375 1.117188 -0.4375 z m 0 0" fill="#222222"/>
</svg>
