<?xml version="1.0" encoding="UTF-8"?>
<svg height="16px" viewBox="0 0 16 16" width="16px" xmlns="http://www.w3.org/2000/svg" xmlns:xlink="http://www.w3.org/1999/xlink">
    <clipPath id="a">
        <rect height="152" width="192"/>
    </clipPath>
    <g clip-path="url(#a)" transform="matrix(1 0 0 1 -168 -16)">
        <path d="m 78.8125 92.085938 c -4.191406 -1.585938 -8.121094 -4.066407 -11.492188 -7.441407 c -3.367187 -3.363281 -5.839843 -7.277343 -7.421874 -11.449219 l -39.898438 39.894532 v 18.910156 h 18.910156 l 7.746094 -8.886719 h 8.882812 l 0.003907 -8.886719 h 13.4375 l 0.003906 -13.441406 z m -20.875 -10.554688 l 3.191406 3.191406 l -31.558594 31.558594 l -3.191406 -3.191406 z m 0 0" fill="#999999"/>
    </g>
    <path d="m 14.339844 1.660156 c -1.878906 -1.878906 -4.925782 -1.882812 -6.804688 -0.003906 c -1.359375 1.363281 -1.734375 3.328125 -1.125 5.019531 l -6.160156 6.160157 v 2.914062 h 2.914062 l 1.191407 -1.367188 l 1.371093 -0.003906 v -1.367187 h 2.070313 v -2.070313 l 1.527344 -1.351562 c 1.695312 0.605468 3.660156 0.234375 5.015625 -1.125 c 1.882812 -1.878906 1.878906 -4.925782 0 -6.804688 z m -1.011719 1.011719 c 0.667969 0.667969 0.671875 1.746094 0.011719 2.40625 s -1.734375 0.652344 -2.402344 -0.015625 s -0.675781 -1.742188 -0.015625 -2.402344 s 1.738281 -0.65625 2.40625 0.011719 z m -7.234375 5.304687 l 0.492188 0.492188 l -4.863282 4.859375 l -0.488281 -0.488281 z m 0 0" fill="#222222"/>
</svg>
