<?xml version="1.0" encoding="UTF-8"?>
<svg height="16px" viewBox="0 0 16 16" width="16px" xmlns="http://www.w3.org/2000/svg" xmlns:xlink="http://www.w3.org/1999/xlink">
    <linearGradient id="a" gradientUnits="userSpaceOnUse" x1="61.04285200083" x2="91.08386566465" y1="106.14447537749" y2="106.14447537749">
        <stop offset="0.25" stop-color="#c0bfbc"/>
        <stop offset="0.5" stop-color="#deddda"/>
        <stop offset="0.85" stop-color="#9a9996"/>
    </linearGradient>
    <clipPath id="b">
        <rect height="152" width="192"/>
    </clipPath>
    <linearGradient id="c" gradientUnits="userSpaceOnUse" x1="61.04285200083" x2="91.08386566465" y1="106.14447537749" y2="106.14447537749">
        <stop offset="0" stop-opacity="0.2"/>
        <stop offset="0.25" stop-opacity="0"/>
        <stop offset="1" stop-opacity="0.05"/>
    </linearGradient>
    <clipPath id="d">
        <rect height="152" width="192"/>
    </clipPath>
    <linearGradient id="e" gradientUnits="userSpaceOnUse" x1="61.04296315435" x2="90.08399399029" y1="104.89547229273" y2="104.89547229273">
        <stop offset="0.15" stop-color="#deddda"/>
        <stop offset="0.55" stop-color="#ffffff"/>
        <stop offset="0.75" stop-color="#c0bfbc"/>
        <stop offset="1" stop-color="#deddda"/>
    </linearGradient>
    <clipPath id="f">
        <rect height="152" width="192"/>
    </clipPath>
    <linearGradient id="g" gradientUnits="userSpaceOnUse" x1="68.43555355102" x2="64.74023276397" y1="100.55859412997" y2="100.55859412997">
        <stop offset="0" stop-color="#c0bfbc"/>
        <stop offset="0.35" stop-color="#f6f5f4"/>
        <stop offset="1" stop-color="#deddda"/>
    </linearGradient>
    <clipPath id="h">
        <rect height="152" width="192"/>
    </clipPath>
    <linearGradient id="i" gradientUnits="userSpaceOnUse" x1="64.74023276397" x2="68.43555355102" y1="100.55859412997" y2="100.55859412997">
        <stop offset="0" stop-color="#9a9996"/>
        <stop offset="0.9" stop-color="#c0bfbc"/>
    </linearGradient>
    <clipPath id="j">
        <rect height="152" width="192"/>
    </clipPath>
    <linearGradient id="k" gradientUnits="userSpaceOnUse" x1="71.34675165767" x2="73.31438098674" y1="66.96874128504" y2="89.45898581297">
        <stop offset="0" stop-opacity="0.8"/>
        <stop offset="0.7" stop-opacity="0"/>
    </linearGradient>
    <clipPath id="l">
        <rect height="152" width="192"/>
    </clipPath>
    <g clip-path="url(#b)" transform="matrix(1 0 0 1 -168 -16)">
        <path d="m 82.953125 76.289062 c -3.347656 1.507813 -7.0625 3.351563 -10.976563 3.351563 c -3.894531 0 -7.597656 -1.835937 -10.929687 -3.335937 l 0.996094 1 l -1 46.238281 l 10.957031 12.457031 l 11.710938 -12.457031 l -0.683594 -9.640625 l 5.324218 -6.144532 l -5.324218 -4.152343 l 8.054687 -8.789063 l -8.054687 -6.792968 c 0.148437 -1.023438 0.445312 -8.078126 0.589844 -11.070313 z m 0 0" fill="url(#a)"/>
    </g>
    <g clip-path="url(#d)" transform="matrix(1 0 0 1 -168 -16)">
        <path d="m 82.953125 76.289062 c -3.347656 1.507813 -7.0625 3.351563 -10.976563 3.351563 c -3.894531 0 -7.597656 -1.835937 -10.929687 -3.335937 l 0.996094 1 l -1 46.238281 l 10.957031 12.457031 l 11.710938 -12.457031 l -0.683594 -9.640625 l 5.324218 -6.144532 l -5.324218 -4.152343 l 8.054687 -8.789063 l -8.054687 -6.792968 c 0.148437 -1.023438 0.445312 -8.078126 0.589844 -11.070313 z m 0 0" fill="url(#c)"/>
    </g>
    <g clip-path="url(#f)" transform="matrix(1 0 0 1 -168 -16)">
        <path d="m 82.949219 76.292969 c -3.347657 1.507812 -7.0625 2.347656 -10.972657 2.347656 c -3.898437 0 -7.597656 -0.835937 -10.933593 -2.335937 v 46.238281 l 10.957031 10.957031 l 10.957031 -10.957031 l -0.660156 -9.636719 l 5.148437 -5.148438 l -5.148437 -5.152343 l 7.789063 -7.789063 l -7.789063 -7.792968 l 0.65625 -10.730469 c -0.003906 0 -0.003906 -0.003907 -0.003906 0 z m 0 0" fill="url(#e)"/>
    </g>
    <g clip-path="url(#h)" transform="matrix(1 0 0 1 -168 -16)">
        <path d="m 64.742188 82.273438 h 3.695312 v 36.570312 h -3.695312 z m 0 0" fill="url(#g)"/>
    </g>
    <g clip-path="url(#j)" transform="matrix(1 0 0 1 -168 -16)">
        <path d="m 64.742188 82.273438 v 36.570312 h 0.496093 v -35.574219 h 3.199219 v -0.996093 z m 0 0" fill="url(#i)"/>
    </g>
    <g clip-path="url(#l)" transform="matrix(1 0 0 1 -168 -16)">
        <path d="m 82.953125 75.789062 s -0.003906 0 -0.003906 0.003907 c -0.027344 0.011719 -0.050781 0.023437 -0.078125 0.035156 c -3.328125 1.484375 -7.011719 2.3125 -10.894532 2.3125 c -3.828124 0 -7.472656 -0.804687 -10.761718 -2.257813 c -0.054688 -0.023437 -0.113282 -0.050781 -0.167969 -0.074218 c 0 -0.003906 -0.003906 -0.003906 -0.003906 -0.003906 v 1.445312 c 3.335937 1.554688 7.035156 2.390625 10.933593 2.390625 c 4.144532 0 8.070313 -0.945313 11.570313 -2.695313 c 0.027344 -0.558593 0.050781 -0.066406 0.070313 -0.488281 v -0.003906 z m 0 0" fill="url(#k)"/>
    </g>
    <path d="m 8 0.25 c -2.066406 0 -3.746094 1.675781 -3.746094 3.742188 c 0 1.496093 0.875 2.78125 2.144532 3.378906 v 6.777344 l 1.601562 1.601562 l 1.601562 -1.601562 l -0.097656 -1.410157 l 0.753906 -0.753906 l -0.753906 -0.753906 l 1.140625 -1.136719 l -1.140625 -1.140625 l 0.097656 -1.582031 c 1.265626 -0.601563 2.144532 -1.886719 2.144532 -3.378906 c 0 -2.066407 -1.679688 -3.742188 -3.746094 -3.742188 z m 0 1.113281 c 0.734375 0 1.332031 0.589844 1.332031 1.316407 c 0 0.722656 -0.597656 1.3125 -1.332031 1.3125 s -1.332031 -0.589844 -1.332031 -1.3125 c 0 -0.726563 0.597656 -1.316407 1.332031 -1.316407 z m -1.0625 6.894531 h 0.542969 v 5.347657 h -0.542969 z m 0 0" fill="#222222"/>
</svg>
