<?xml version="1.0" encoding="UTF-8"?>
<svg height="16px" viewBox="0 0 16 16" width="16px" xmlns="http://www.w3.org/2000/svg">
    <path d="m 7.867188 0.25 c -0.488282 0 -0.96875 0.175781 -1.316407 0.53125 l -5.796875 5.933594 c -1.960937 2.425781 1.332032 2.144531 2.742188 2.84375 c 0.507812 0.515625 -1.9375 0.898437 -1.433594 1.417968 c 0.507812 0.515626 3.0625 0.996094 3.570312 1.511719 c 0.503907 0.519531 -1.039062 1.066407 -0.53125 1.585938 c 0.507813 0.515625 1.675782 0.027343 1.898438 1.222656 c 0.15625 0.851563 2.109375 0.367187 3.0625 -0.332031 c 0.507812 -0.519532 -0.96875 -0.472656 -0.460938 -0.988282 c 1.257813 -1.289062 2.429688 -0.46875 2.863282 -1.757812 c 0.210937 -0.636719 -1.855469 -0.984375 -1.347656 -1.5 c 1.457031 -0.851562 6.492187 -1.40625 4.101562 -3.792969 l -6.007812 -6.144531 c -0.367188 -0.351562 -0.859376 -0.53125 -1.34375 -0.53125 z m 0.050781 0.566406 c 0.347656 0 0.691406 0.128906 0.941406 0.382813 l 2.292969 2.328125 c 0.21875 0.222656 0.214844 0.652344 0.09375 0.777344 l -1.140625 -0.910157 l -0.222657 1.347657 l -0.953124 -0.5 l -1.523438 0.960937 l -0.503906 -2.03125 l -0.816406 1.417969 h -1.253907 c -0.507812 0 -0.570312 -0.648438 -0.105469 -1.109375 c 0.808594 -0.875 1.738282 -1.765625 2.242188 -2.28125 c 0.253906 -0.261719 0.601562 -0.386719 0.949219 -0.382813 z m -2.753907 9.0625 c 0.15625 0.097656 2.5 0.574219 3.070313 0.667969 c 0.199219 0.042969 0.058594 0.246094 -0.214844 0.382813 c -0.617187 0.164062 -3.609375 -1.050782 -2.855469 -1.050782 z m 9.113282 1.632813 c -0.472656 0.015625 -0.9375 0.253906 -1.066406 0.707031 c 0 0.292969 2.167968 0.488281 2.167968 -0.070312 c -0.152344 -0.445313 -0.632812 -0.65625 -1.101562 -0.636719 z m -9.921875 1.273437 c -0.039063 0 -0.074219 0 -0.113281 0 c -0.65625 0.035156 -1.363282 0.511719 -0.800782 0.996094 c 0.515625 0.445312 1.308594 -0.109375 1.542969 -0.726562 c -0.132813 -0.183594 -0.371094 -0.261719 -0.628906 -0.269532 z m 8.582031 0.039063 c -0.660156 0.59375 0.074219 1.195312 0.730469 0.8125 c 0.144531 -0.148438 -0.007813 -0.664063 -0.730469 -0.8125 z m 0 0" fill="#222222"/>
</svg>
