<?xml version="1.0" encoding="UTF-8"?>
<svg height="16px" viewBox="0 0 16 16" width="16px" xmlns="http://www.w3.org/2000/svg">
    <path d="m 7.867188 0.25 c -0.484376 0 -0.96875 0.175781 -1.316407 0.53125 l -5.796875 5.933594 c -1.960937 2.425781 1.332032 2.144531 2.746094 2.84375 c 0.503906 0.515625 -1.941406 0.898437 -1.4375 1.417968 c 0.507812 0.515626 3.0625 0.996094 3.570312 1.511719 c 0.507813 0.519531 -1.039062 1.070313 -0.53125 1.585938 c 0.507813 0.515625 1.675782 0.027343 1.898438 1.21875 c 0.152344 0.855469 2.109375 0.367187 3.0625 -0.332031 c 0.507812 -0.515626 -0.96875 -0.46875 -0.460938 -0.984376 c 1.257813 -1.289062 2.433594 -0.46875 2.863282 -1.757812 c 0.210937 -0.636719 -1.855469 -0.984375 -1.347656 -1.5 c 1.457031 -0.851562 6.492187 -1.402344 4.101562 -3.792969 l -6.007812 -6.144531 c -0.367188 -0.351562 -0.859376 -0.53125 -1.34375 -0.53125 z m 0.050781 0.5625 c 0.347656 0.003906 0.691406 0.132812 0.941406 0.386719 l 2.296875 2.328125 c 0.214844 0.222656 0.210938 0.652344 0.089844 0.777344 l -1.136719 -0.910157 l -0.226563 1.347657 l -0.949218 -0.503907 l -1.523438 0.964844 l -0.507812 -2.027344 l -0.816406 1.414063 h -1.253907 c -0.511719 0 -0.570312 -0.648438 -0.105469 -1.109375 c 0.808594 -0.875 1.738282 -1.765625 2.246094 -2.28125 c 0.25 -0.257813 0.597656 -0.386719 0.945313 -0.386719 z m -2.792969 9.066406 h 0.039062 c 0.15625 0.097656 2.496094 0.574219 3.070313 0.667969 c 0.199219 0.042969 0.058594 0.246094 -0.214844 0.382813 c -0.542969 0.144531 -2.921875 -0.777344 -2.976562 -1.003907 c 0 0 0 -0.003906 0 -0.007812 v -0.003907 l 0.003906 -0.003906 v -0.003906 l 0.007813 -0.007812 c 0.011718 -0.007813 0.035156 -0.015626 0.070312 -0.019532 z m 7.851562 3.871094 c -0.59375 0.023438 -1.175781 0.324219 -1.335937 0.890625 c 0 0.371094 2.722656 0.609375 2.722656 -0.089844 c -0.195312 -0.558593 -0.796875 -0.820312 -1.386719 -0.800781 z m 0 0" fill="#222222"/>
</svg>
