<?xml version="1.0" encoding="UTF-8"?>
<svg height="16px" viewBox="0 0 16 16" width="16px" xmlns="http://www.w3.org/2000/svg">
    <path d="m 14.316406 1.683594 c -1.910156 -1.910156 -5.003906 -1.910156 -6.914062 -0.003906 c -1.382813 1.382812 -1.761719 3.378906 -1.144532 5.101562 l -6.257812 6.257812 v 2.960938 h 2.960938 l 1.210937 -1.390625 h 1.390625 v -1.390625 h 2.105469 v -2.105469 l 1.550781 -1.375 c 1.722656 0.617188 3.71875 0.242188 5.101562 -1.140625 c 1.910157 -1.910156 1.90625 -5.003906 -0.003906 -6.914062 z m -1.027344 1.027344 c 0.675782 0.679687 0.683594 1.773437 0.011719 2.445312 c -0.667969 0.667969 -1.761719 0.664062 -2.441406 -0.015625 s -0.683594 -1.773437 -0.015625 -2.441406 c 0.671875 -0.671875 1.765625 -0.664063 2.445312 0.011719 z m -7.351562 5.390624 l 0.5 0.5 l -4.941406 4.9375 l -0.496094 -0.496093 z m 0 0" fill="#222222"/>
</svg>
