<?xml version="1.0" encoding="UTF-8"?>
<svg height="128px" viewBox="0 0 128 128" width="128px" xmlns="http://www.w3.org/2000/svg" xmlns:xlink="http://www.w3.org/1999/xlink">
    <linearGradient id="a" gradientUnits="userSpaceOnUse" x1="12.050781" x2="115.949219" y1="66" y2="66">
        <stop offset="0" stop-opacity="0.25"/>
        <stop offset="0.3" stop-opacity="0"/>
        <stop offset="0.4" stop-opacity="0"/>
        <stop offset="0.5" stop-opacity="0"/>
        <stop offset="0.8" stop-opacity="0.25"/>
        <stop offset="1" stop-opacity="0"/>
    </linearGradient>
    <linearGradient id="b" gradientUnits="userSpaceOnUse" x1="27.2658" x2="100.7342" y1="27.265778" y2="100.734192">
        <stop offset="0" stop-color="#9a9996"/>
        <stop offset="0.6" stop-color="#77767b"/>
    </linearGradient>
    <path d="m 64 14.003906 c -28.683594 0.347656 -51.949219 23.917969 -51.949219 52.628906 c 0 28.707032 23.265625 51.710938 51.949219 51.363282 c 27.273438 -0.109375 20.863281 -15.234375 51.007812 -1.230469 v -2 l -2.367187 -1.949219 c -12.371094 -22.269531 2.945313 -26.464844 3.308594 -47.449218 c 0 -28.707032 -23.265625 -51.710938 -51.949219 -51.363282 z m 0 0" fill="#5e5c64"/>
    <path d="m 64 14.003906 c -28.683594 0.347656 -51.949219 23.917969 -51.949219 52.628906 c 0 28.707032 23.265625 51.710938 51.949219 51.363282 c 27.273438 -0.109375 20.863281 -15.234375 51.007812 -1.230469 v -2 l -2.367187 -1.949219 c -12.371094 -22.269531 2.945313 -26.464844 3.308594 -47.449218 c 0 -28.707032 -23.265625 -51.710938 -51.949219 -51.363282 z m 0 0" fill="url(#a)"/>
    <path d="m 64 12.003906 c -28.683594 0.347656 -51.949219 23.917969 -51.949219 52.628906 c 0 28.707032 23.265625 51.710938 51.949219 51.363282 c 27.273438 -0.109375 20.859375 -15.234375 51.007812 -1.230469 c -16.515624 -25.796875 0.558594 -29.230469 0.941407 -51.398437 c 0 -28.707032 -23.265625 -51.710938 -51.949219 -51.363282 z m 0 0" fill="url(#b)"/>
    <path d="m 63.820312 27.152344 c -5.585937 0 -10.113281 0.875 -13.582031 2.617187 c -3.46875 1.710938 -5.203125 4.070313 -5.203125 7.082031 c 0 2.015626 0.71875 3.878907 2.15625 5.589844 c 1.441406 1.675782 4.234375 3.980469 8.382813 6.921875 c 3.761719 2.667969 6.703125 4.964844 8.816406 6.878907 c -7.574219 0.890624 -13.960937 3.449218 -19.167969 7.6875 c -5.160156 4.242187 -7.738281 9.527343 -7.738281 15.855468 c 0 6.566406 2.34375 11.8125 7.042969 15.746094 c 4.695312 3.933594 10.449218 5.902344 17.261718 5.902344 c 7.488282 0 14.023438 -2.449219 19.609376 -7.339844 c 5.625 -4.925781 8.4375 -10.601562 8.4375 -17.03125 c 0 -3.65625 -0.953126 -7.128906 -2.855469 -10.410156 c -1.902344 -3.28125 -4.378907 -6.070313 -7.425781 -8.359375 c -3.003907 -2.292969 -8.160157 -5.472657 -15.476563 -9.542969 c -6.855469 -3.792969 -11.113281 -6.410156 -12.761719 -7.847656 c -1.648437 -1.4375 -2.472656 -2.976563 -2.472656 -4.617188 c 0 -1.742187 0.992188 -3.179687 2.984375 -4.308594 c 2.027344 -1.128906 4.609375 -1.691406 7.738281 -1.691406 c 2.453125 0 4.59375 0.492188 6.414063 1.484375 c 1.859375 0.957031 4.125 2.636719 6.789062 5.03125 c 2.621094 2.359375 4.90625 3.539063 6.851563 3.539063 c 1.355468 0 2.539062 -0.429688 3.554687 -1.285156 c 1.015625 -0.855469 1.523438 -1.929688 1.523438 -3.230469 c 0 -2.703125 -2.09375 -4.824219 -6.28125 -6.363281 c -4.144531 -1.539063 -9.011719 -2.308594 -14.597657 -2.308594 z m 3.363282 31.449218 c 7.527344 6.1875 11.292968 13.3125 11.292968 21.386719 c 0 5.570313 -1.351562 10.003907 -4.058593 13.285157 c -2.707031 3.25 -6.152344 4.875 -10.339844 4.875 c -4.019531 0 -7.558594 -1.691407 -10.605469 -5.078126 c -3 -3.386718 -4.503906 -8.136718 -4.503906 -14.257812 c 0 -11.867188 6.070312 -18.605469 18.214844 -20.210938 z m 0 0" fill="#ffffff"/>
</svg>
