<?xml version="1.0" encoding="UTF-8"?>
<svg height="128px" viewBox="0 0 128 128" width="128px" xmlns="http://www.w3.org/2000/svg" xmlns:xlink="http://www.w3.org/1999/xlink">
    <linearGradient id="a" gradientUnits="userSpaceOnUse" x1="17.15351593257" x2="110.84642005486" y1="64.99995971599" y2="64.99995971599">
        <stop offset="0" stop-opacity="0.25"/>
        <stop offset="0.4" stop-opacity="0"/>
        <stop offset="0.496029" stop-opacity="0"/>
        <stop offset="0.6" stop-opacity="0"/>
        <stop offset="1" stop-opacity="0.25"/>
    </linearGradient>
    <linearGradient id="b" gradientUnits="userSpaceOnUse" x1="25.86418037576" x2="102.12463560754" y1="61.54214909419" y2="61.54214909419">
        <stop offset="0" stop-opacity="0.2"/>
        <stop offset="0.3" stop-opacity="0"/>
        <stop offset="0.5" stop-opacity="0"/>
        <stop offset="0.7" stop-opacity="0"/>
        <stop offset="1" stop-opacity="0.2"/>
    </linearGradient>
    <linearGradient id="c" gradientUnits="userSpaceOnUse" x1="30.87507615188" x2="97.12485639096" y1="29.875074034" y2="96.1248572871">
        <stop offset="0" stop-color="#ff7800"/>
        <stop offset="0.45" stop-color="#e66100"/>
    </linearGradient>
    <path d="m 107.566406 34.867188 l 2.578125 -6.8125 s -3.28125 -1.214844 -7.261719 -5.277344 c -3.980468 -4.058594 -12.414062 -1.671875 -12.414062 -1.671875 l -9.605469 -11.105469 h -33.726562 l -9.605469 11.105469 s -8.433594 -2.386719 -12.414062 1.671875 c -3.980469 4.0625 -7.261719 5.277344 -7.261719 5.277344 l 2.578125 6.8125 l -3.28125 8.902343 s 9.644531 37.890625 10.777344 42.4375 c 2.222656 8.953125 3.746093 12.417969 10.070312 16.953125 c 6.324219 4.539063 17.800781 12.417969 19.675781 13.613282 c 1.875 1.191406 4.214844 3.226562 6.324219 3.226562 s 4.449219 -2.035156 6.324219 -3.226562 c 1.875 -1.195313 13.351562 -9.074219 19.675781 -13.613282 c 6.324219 -4.535156 7.847656 -8 10.070312 -16.953125 c 1.132813 -4.546875 10.777344 -42.4375 10.777344 -42.4375 z m 0 0" fill="#c64600"/>
    <path d="m 107.566406 34.867188 l 2.578125 -6.8125 s -3.28125 -1.214844 -7.261719 -5.277344 c -3.980468 -4.058594 -12.414062 -1.671875 -12.414062 -1.671875 l -9.605469 -11.105469 h -33.726562 l -9.605469 11.105469 s -8.433594 -2.386719 -12.414062 1.671875 c -3.980469 4.0625 -7.261719 5.277344 -7.261719 5.277344 l 2.578125 6.8125 l -3.28125 8.902343 s 9.644531 37.890625 10.777344 42.4375 c 2.222656 8.953125 3.746093 12.417969 10.070312 16.953125 c 6.324219 4.539063 17.800781 12.417969 19.675781 13.613282 c 1.875 1.191406 4.214844 3.226562 6.324219 3.226562 s 4.449219 -2.035156 6.324219 -3.226562 c 1.875 -1.195313 13.351562 -9.074219 19.675781 -13.613282 c 6.324219 -4.535156 7.847656 -8 10.070312 -16.953125 c 1.132813 -4.546875 10.777344 -42.4375 10.777344 -42.4375 z m 0 0" fill="url(#a)"/>
    <path d="m 105.984375 35.429688 l 2.480469 -6.105469 s -3.160156 -1.386719 -6.996094 -5.230469 c -3.835938 -3.839844 -11.964844 -1.582031 -11.964844 -1.582031 l -9.253906 -10.511719 h -32.5 l -9.253906 10.511719 s -8.128906 -2.257813 -11.964844 1.582031 c -3.835938 3.84375 -6.996094 5.230469 -6.996094 5.230469 l 2.480469 6.105469 l -3.160156 9.039062 s 9.296875 35.246094 10.382812 39.546875 c 2.144531 8.476563 3.613281 11.753906 9.707031 16.046875 s 17.15625 11.753906 18.960938 12.882812 c 1.804688 1.128907 4.0625 3.054688 6.09375 3.054688 s 4.289062 -1.925781 6.09375 -3.054688 c 1.804688 -1.128906 12.867188 -8.589843 18.960938 -12.882812 s 7.5625 -7.570312 9.707031 -16.046875 c 1.085937 -4.300781 10.382812 -39.546875 10.382812 -39.546875 z m 0 0" fill="#ffffff"/>
    <path d="m 63.960938 22.777344 c -2.417969 0.085937 -4.746094 0.828125 -7.007813 1.636718 c -1.546875 0.503907 -3.074219 1.117188 -4.683594 1.398438 c -0.675781 0.039062 -1.347656 -0.140625 -2.023437 -0.21875 c -3.617188 -0.578125 -7.214844 -1.261719 -10.816406 -1.941406 c -3.453126 4.210937 -6.839844 8.488281 -9.933594 12.976562 c -1.175782 1.757813 -2.378906 3.527344 -3.199219 5.488282 c -0.292969 0.6875 -0.445313 1.425781 -0.425781 2.171874 c -0.019532 0.382813 0.011718 0.769532 0.027344 1.15625 c 0.085937 1.65625 0.722656 3.285157 1.847656 4.515626 c 8.140625 8.957031 10.457031 9.972656 12.402344 13.367187 c -0.792969 1.777344 -1.457032 3.585937 -1.839844 5.5 c -0.125 0.699219 -0.117188 1.410156 -0.117188 2.121094 c -0.011718 1.578125 0.394532 3.160156 1.207032 4.523437 c 1.257812 2.167969 3.023437 4.128906 5.296874 5.246094 c 1.367188 0.707031 2.746094 0.710938 4.195313 0.347656 c -0.179687 0.101563 -0.363281 0.207032 -0.542969 0.316406 c -0.789062 0.5 -1.277344 1.421876 -1.261718 2.351563 c -0.003907 0.378906 -0.003907 0.867187 0.039062 1.113281 c 0.171875 1.125 0.980469 4.023438 1.902344 4.636719 c 3.460937 2.65625 6.921875 5.324219 10.332031 8.054687 c 1.175781 1 2.292969 2.222657 3.828125 2.660157 c 1.167969 0.34375 2.382812 -0.160157 3.316406 -0.851563 c 1.105469 -0.808594 2.046875 -1.808594 3.148438 -2.617187 c 2.578125 -2.046875 5.222656 -4.085938 7.800781 -6.082031 c 0.769531 -0.617188 1.589844 -1.167969 2.332031 -1.8125 c 0.941406 -0.808594 1.097656 -3.921876 1.125 -5.066407 c 0.011719 -0.316406 -0.027344 -0.628906 -0.128906 -0.9375 c -0.253906 -0.78125 -0.886719 -1.371093 -1.605469 -1.734375 c 1 0.316406 2.085938 0.339844 3.089844 0.019532 c 2.152344 -0.671876 3.898437 -2.25 5.25 -4.007813 c 1.128906 -1.488281 2.058594 -3.207031 2.238281 -5.097656 c 0.050782 -0.445313 0.050782 -0.511719 0.050782 -1.570313 c 0.042968 -3.253906 -1.714844 -6.195312 -1.953126 -7.144531 c 0.296876 -0.605469 4.246094 -4.8125 10.988282 -11.898437 c 1.105468 -1.058594 2.25 -2.179688 2.777344 -3.660157 c 0.480468 -1.289062 0.503906 -2.265625 0.503906 -3.1875 c 0.015625 -0.355469 -0.015625 -0.707031 -0.03125 -1.0625 c -0.25 -1.503906 -1.070313 -2.828125 -1.816406 -4.128906 c -2.15625 -3.511719 -4.660157 -6.796875 -7.175782 -10.0625 c -1.480468 -1.902344 -2.996094 -3.78125 -4.527344 -5.644531 c -3.765624 0.707031 -7.53125 1.425781 -11.316406 2.015625 c -0.121094 0.015625 -0.496094 0.070312 -0.714844 0.097656 c -0.886718 0.1875 -1.757812 -0.167969 -2.605468 -0.394531 c -2.699219 -0.804688 -5.296875 -1.984375 -8.097656 -2.414063 c -0.621094 -0.09375 -1.246094 -0.171875 -1.875 -0.183593 z m 0.039062 2.722656 c 0.003906 0 1.878906 0.007812 4.683594 0.945312 c 2.8125 0.9375 5.855468 2.109376 7.261718 2.109376 s 11.828126 -1.992188 11.828126 -1.992188 s 11.867187 14.359375 12.339843 17.941406 c -0.160156 2.773438 -1.628906 3.613282 -3.101562 5.179688 c -1.5625 1.660156 -8.386719 8.917968 -9.265625 9.847656 c -0.691406 0.738281 -1.980469 1.777344 -1.953125 3.441406 c -0.019531 1.035156 0.035156 1.472656 0.328125 2.171875 c 0.683594 1.621094 1.578125 3.523438 1.675781 5.542969 c -0.046875 0.914062 -0.277344 1.851562 -0.78125 2.789062 c -1.757813 3.28125 -4.773437 5.472657 -6.707031 5.109376 c -1.933594 -0.363282 -6.472656 -2.734376 -8.140625 -3.820313 c -1.554688 -1.011719 -6.257813 -4.878906 -6.886719 -6.75 c 0.640625 -1.710937 5.464844 -4.367187 6.40625 -5 c 1.011719 -0.683594 5.617188 -3.324219 5.710938 -4.359375 c 0.027343 -0.300781 0.039062 -0.550781 0.03125 -1.210938 c 0.011718 -0.722656 -0.207032 -1.296874 -1.332032 -3.410156 c -1.1875 -2.238281 -3.210937 -5.132812 -3.425781 -7.339844 c 0.007813 -0.0625 0.015625 -0.125 0.027344 -0.183593 c 0.40625 -2.273438 4.355469 -3.453125 7.175781 -4.519531 c 2.816406 -1.066407 8.242188 -3.078126 8.921875 -3.390626 c 0.269531 -0.125 0.320313 -0.199218 0.335937 -0.363281 c 0.019532 -0.105469 0.011719 -0.597656 0.007813 -0.613281 c 0 -0.234375 -0.40625 -0.414062 -1.894531 -0.554688 c -2.054688 -0.195312 -7.882813 -0.96875 -10.507813 -0.234374 c -2.625 0.730468 -7.113281 1.847656 -7.476562 2.4375 c -0.257813 0.414062 -0.492188 0.546874 -0.480469 1.296874 c -0.011719 0.941407 0.023438 1.304688 0.167969 2.082032 c 0.371093 2.039062 2.292969 11.828125 2.480469 13.570312 c 0.050781 0.457032 0.109374 0.875 0.140624 1.25 c -0.078124 0.648438 -0.429687 1.105469 -1.460937 1.339844 c -1.871094 0.429688 -5.027344 1.175781 -6.109375 1.175781 s -4.238281 -0.746093 -6.109375 -1.175781 c -1.03125 -0.234375 -1.382813 -0.691406 -1.460937 -1.339844 c 0.03125 -0.375 0.089843 -0.792968 0.140624 -1.25 c 0.1875 -1.742187 2.109376 -11.53125 2.484376 -13.570312 c 0.132812 -0.734375 0.179687 -1.121094 0.164062 -2.082032 c 0.011719 -0.75 -0.222656 -0.882812 -0.476562 -1.296874 c -0.367188 -0.589844 -4.855469 -1.707032 -7.480469 -2.4375 c -2.625 -0.734376 -8.453125 0.039062 -10.503907 0.234374 c -1.492187 0.140626 -1.882812 0.3125 -1.894531 0.554688 c -0.007812 0.015625 -0.007812 0.476562 0.003907 0.613281 c -0.003907 0.148438 0.066406 0.238281 0.339843 0.363281 c 0.675781 0.3125 6.101563 2.324219 8.921875 3.390626 c 2.816406 1.066406 6.765625 2.246093 7.175782 4.519531 c 0.007812 0.058593 0.015624 0.121093 0.023437 0.183593 c -0.214844 2.207032 -2.238281 5.101563 -3.425781 7.339844 c -1.125 2.113282 -1.34375 2.6875 -1.332032 3.410156 c -0.011718 0.550782 0 0.910157 0.03125 1.210938 c 0.09375 1.035156 4.699219 3.675781 5.710938 4.359375 c 0.941406 0.632813 5.765625 3.289063 6.40625 5 c -0.628906 1.871094 -5.332031 5.738281 -6.886719 6.75 c -1.667969 1.085937 -6.207031 3.457031 -8.140625 3.820313 c -1.933594 0.363281 -4.949218 -1.828126 -6.707031 -5.109376 c -0.503906 -0.9375 -0.734375 -1.875 -0.78125 -2.789062 c 0.097656 -2.019531 0.992187 -3.921875 1.675781 -5.542969 c 0.308594 -0.734375 0.34375 -1.175781 0.328125 -2.171875 c 0.027344 -1.664062 -1.261719 -2.703125 -1.957031 -3.441406 c -0.875 -0.929688 -7.699219 -8.1875 -9.261719 -9.847656 c -1.472656 -1.566406 -2.941406 -2.40625 -3.101562 -5.179688 c 0.472656 -3.582031 12.339843 -17.941406 12.339843 -17.941406 s 10.421876 1.992188 11.828126 1.992188 s 4.449218 -1.171876 7.261718 -2.109376 c 2.804688 -0.9375 4.675782 -0.945312 4.683594 -0.945312 z m 0 51.691406 c 0.640625 0 4.753906 1.453125 8.054688 3.164063 c 3.304687 1.707031 5.695312 2.917969 6.457031 3.398437 c 0.148437 0.089844 0.25 0.195313 0.3125 0.3125 c -0.128907 0.3125 -0.394531 2.617188 -0.710938 2.839844 c -0.695312 0.492188 -10.054687 7.746094 -10.964843 8.550781 c -0.90625 0.800781 -2.242188 2.128907 -3.148438 2.128907 s -2.242188 -1.328126 -3.152344 -2.128907 c -0.90625 -0.804687 -10.269531 -8.058593 -10.964844 -8.550781 c -0.3125 -0.222656 -0.578124 -2.527344 -0.707031 -2.835938 c 0.0625 -0.117187 0.164063 -0.226562 0.308594 -0.316406 c 0.765625 -0.480468 3.15625 -1.691406 6.457031 -3.398437 c 3.300782 -1.710938 7.417969 -3.164063 8.058594 -3.164063 z m 0 0" fill="#c64600"/>
    <path d="m 63.960938 22.777344 c -2.417969 0.085937 -4.746094 0.828125 -7.007813 1.636718 c -1.546875 0.503907 -3.074219 1.117188 -4.683594 1.398438 c -0.675781 0.039062 -1.347656 -0.140625 -2.023437 -0.21875 c -3.617188 -0.578125 -7.214844 -1.261719 -10.816406 -1.941406 c -3.453126 4.210937 -6.839844 8.488281 -9.933594 12.976562 c -1.175782 1.757813 -2.378906 3.527344 -3.199219 5.488282 c -0.292969 0.6875 -0.445313 1.425781 -0.425781 2.171874 c -0.019532 0.382813 0.011718 0.769532 0.027344 1.15625 c 0.085937 1.65625 0.722656 3.285157 1.847656 4.515626 c 8.140625 8.957031 10.457031 9.972656 12.402344 13.367187 c -0.792969 1.777344 -1.457032 3.585937 -1.839844 5.5 c -0.125 0.699219 -0.117188 1.410156 -0.117188 2.121094 c -0.011718 1.578125 0.394532 3.160156 1.207032 4.523437 c 1.257812 2.167969 3.023437 4.128906 5.296874 5.246094 c 1.367188 0.707031 2.746094 0.710938 4.195313 0.347656 c -0.179687 0.101563 -0.363281 0.207032 -0.542969 0.316406 c -0.789062 0.5 -1.277344 1.421876 -1.261718 2.351563 c -0.003907 0.378906 -0.003907 0.867187 0.039062 1.113281 c 0.171875 1.125 0.980469 4.023438 1.902344 4.636719 c 3.460937 2.65625 6.921875 5.324219 10.332031 8.054687 c 1.175781 1 2.292969 2.222657 3.828125 2.660157 c 1.167969 0.34375 2.382812 -0.160157 3.316406 -0.851563 c 1.105469 -0.808594 2.046875 -1.808594 3.148438 -2.617187 c 2.578125 -2.046875 5.222656 -4.085938 7.800781 -6.082031 c 0.769531 -0.617188 1.589844 -1.167969 2.332031 -1.8125 c 0.941406 -0.808594 1.097656 -3.921876 1.125 -5.066407 c 0.011719 -0.316406 -0.027344 -0.628906 -0.128906 -0.9375 c -0.253906 -0.78125 -0.886719 -1.371093 -1.605469 -1.734375 c 1 0.316406 2.085938 0.339844 3.089844 0.019532 c 2.152344 -0.671876 3.898437 -2.25 5.25 -4.007813 c 1.128906 -1.488281 2.058594 -3.207031 2.238281 -5.097656 c 0.050782 -0.445313 0.050782 -0.511719 0.050782 -1.570313 c 0.042968 -3.253906 -1.714844 -6.195312 -1.953126 -7.144531 c 0.296876 -0.605469 4.246094 -4.8125 10.988282 -11.898437 c 1.105468 -1.058594 2.25 -2.179688 2.777344 -3.660157 c 0.480468 -1.289062 0.503906 -2.265625 0.503906 -3.1875 c 0.015625 -0.355469 -0.015625 -0.707031 -0.03125 -1.0625 c -0.25 -1.503906 -1.070313 -2.828125 -1.816406 -4.128906 c -2.15625 -3.511719 -4.660157 -6.796875 -7.175782 -10.0625 c -1.480468 -1.902344 -2.996094 -3.78125 -4.527344 -5.644531 c -3.765624 0.707031 -7.53125 1.425781 -11.316406 2.015625 c -0.121094 0.015625 -0.496094 0.070312 -0.714844 0.097656 c -0.886718 0.1875 -1.757812 -0.167969 -2.605468 -0.394531 c -2.699219 -0.804688 -5.296875 -1.984375 -8.097656 -2.414063 c -0.621094 -0.09375 -1.246094 -0.171875 -1.875 -0.183593 z m 0.039062 2.722656 c 0.003906 0 1.878906 0.007812 4.683594 0.945312 c 2.8125 0.9375 5.855468 2.109376 7.261718 2.109376 s 11.828126 -1.992188 11.828126 -1.992188 s 11.867187 14.359375 12.339843 17.941406 c -0.160156 2.773438 -1.628906 3.613282 -3.101562 5.179688 c -1.5625 1.660156 -8.386719 8.917968 -9.265625 9.847656 c -0.691406 0.738281 -1.980469 1.777344 -1.953125 3.441406 c -0.019531 1.035156 0.035156 1.472656 0.328125 2.171875 c 0.683594 1.621094 1.578125 3.523438 1.675781 5.542969 c -0.046875 0.914062 -0.277344 1.851562 -0.78125 2.789062 c -1.757813 3.28125 -4.773437 5.472657 -6.707031 5.109376 c -1.933594 -0.363282 -6.472656 -2.734376 -8.140625 -3.820313 c -1.554688 -1.011719 -6.257813 -4.878906 -6.886719 -6.75 c 0.640625 -1.710937 5.464844 -4.367187 6.40625 -5 c 1.011719 -0.683594 5.617188 -3.324219 5.710938 -4.359375 c 0.027343 -0.300781 0.039062 -0.550781 0.03125 -1.210938 c 0.011718 -0.722656 -0.207032 -1.296874 -1.332032 -3.410156 c -1.1875 -2.238281 -3.210937 -5.132812 -3.425781 -7.339844 c 0.007813 -0.0625 0.015625 -0.125 0.027344 -0.183593 c 0.40625 -2.273438 4.355469 -3.453125 7.175781 -4.519531 c 2.816406 -1.066407 8.242188 -3.078126 8.921875 -3.390626 c 0.269531 -0.125 0.320313 -0.199218 0.335937 -0.363281 c 0.019532 -0.105469 0.011719 -0.597656 0.007813 -0.613281 c 0 -0.234375 -0.40625 -0.414062 -1.894531 -0.554688 c -2.054688 -0.195312 -7.882813 -0.96875 -10.507813 -0.234374 c -2.625 0.730468 -7.113281 1.847656 -7.476562 2.4375 c -0.257813 0.414062 -0.492188 0.546874 -0.480469 1.296874 c -0.011719 0.941407 0.023438 1.304688 0.167969 2.082032 c 0.371093 2.039062 2.292969 11.828125 2.480469 13.570312 c 0.050781 0.457032 0.109374 0.875 0.140624 1.25 c -0.078124 0.648438 -0.429687 1.105469 -1.460937 1.339844 c -1.871094 0.429688 -5.027344 1.175781 -6.109375 1.175781 s -4.238281 -0.746093 -6.109375 -1.175781 c -1.03125 -0.234375 -1.382813 -0.691406 -1.460937 -1.339844 c 0.03125 -0.375 0.089843 -0.792968 0.140624 -1.25 c 0.1875 -1.742187 2.109376 -11.53125 2.484376 -13.570312 c 0.132812 -0.734375 0.179687 -1.121094 0.164062 -2.082032 c 0.011719 -0.75 -0.222656 -0.882812 -0.476562 -1.296874 c -0.367188 -0.589844 -4.855469 -1.707032 -7.480469 -2.4375 c -2.625 -0.734376 -8.453125 0.039062 -10.503907 0.234374 c -1.492187 0.140626 -1.882812 0.3125 -1.894531 0.554688 c -0.007812 0.015625 -0.007812 0.476562 0.003907 0.613281 c -0.003907 0.148438 0.066406 0.238281 0.339843 0.363281 c 0.675781 0.3125 6.101563 2.324219 8.921875 3.390626 c 2.816406 1.066406 6.765625 2.246093 7.175782 4.519531 c 0.007812 0.058593 0.015624 0.121093 0.023437 0.183593 c -0.214844 2.207032 -2.238281 5.101563 -3.425781 7.339844 c -1.125 2.113282 -1.34375 2.6875 -1.332032 3.410156 c -0.011718 0.550782 0 0.910157 0.03125 1.210938 c 0.09375 1.035156 4.699219 3.675781 5.710938 4.359375 c 0.941406 0.632813 5.765625 3.289063 6.40625 5 c -0.628906 1.871094 -5.332031 5.738281 -6.886719 6.75 c -1.667969 1.085937 -6.207031 3.457031 -8.140625 3.820313 c -1.933594 0.363281 -4.949218 -1.828126 -6.707031 -5.109376 c -0.503906 -0.9375 -0.734375 -1.875 -0.78125 -2.789062 c 0.097656 -2.019531 0.992187 -3.921875 1.675781 -5.542969 c 0.308594 -0.734375 0.34375 -1.175781 0.328125 -2.171875 c 0.027344 -1.664062 -1.261719 -2.703125 -1.957031 -3.441406 c -0.875 -0.929688 -7.699219 -8.1875 -9.261719 -9.847656 c -1.472656 -1.566406 -2.941406 -2.40625 -3.101562 -5.179688 c 0.472656 -3.582031 12.339843 -17.941406 12.339843 -17.941406 s 10.421876 1.992188 11.828126 1.992188 s 4.449218 -1.171876 7.261718 -2.109376 c 2.804688 -0.9375 4.675782 -0.945312 4.683594 -0.945312 z m 0 51.691406 c 0.640625 0 4.753906 1.453125 8.054688 3.164063 c 3.304687 1.707031 5.695312 2.917969 6.457031 3.398437 c 0.148437 0.089844 0.25 0.195313 0.3125 0.3125 c -0.128907 0.3125 -0.394531 2.617188 -0.710938 2.839844 c -0.695312 0.492188 -10.054687 7.746094 -10.964843 8.550781 c -0.90625 0.800781 -2.242188 2.128907 -3.148438 2.128907 s -2.242188 -1.328126 -3.152344 -2.128907 c -0.90625 -0.804687 -10.269531 -8.058593 -10.964844 -8.550781 c -0.3125 -0.222656 -0.578124 -2.527344 -0.707031 -2.835938 c 0.0625 -0.117187 0.164063 -0.226562 0.308594 -0.316406 c 0.765625 -0.480468 3.15625 -1.691406 6.457031 -3.398437 c 3.300782 -1.710938 7.417969 -3.164063 8.058594 -3.164063 z m 0 0" fill="url(#b)"/>
    <path d="m 47.136719 8 l -9.605469 10.910156 s -8.433594 -2.347656 -12.414062 1.640625 c -3.980469 3.988281 -7.261719 7.503907 -7.261719 7.503907 l 2.578125 6.332031 l -3.277344 9.382812 s 9.640625 36.574219 10.773438 41.042969 c 2.222656 8.792969 3.746093 12.195312 10.070312 16.652344 c 6.324219 4.453125 17.800781 12.191406 19.675781 13.367187 c 1.875 1.171875 4.214844 3.167969 6.324219 3.167969 s 4.449219 -1.996094 6.324219 -3.167969 c 1.875 -1.175781 13.351562 -8.914062 19.675781 -13.367187 c 6.324219 -4.457032 7.847656 -7.859375 10.074219 -16.652344 c 1.128906 -4.46875 10.773437 -41.042969 10.773437 -41.042969 l -3.28125 -9.382812 l 2.578125 -6.332031 s -3.28125 -3.515626 -7.261719 -7.503907 c -3.980468 -3.988281 -12.414062 -1.640625 -12.414062 -1.640625 l -9.605469 -10.910156 z m 16.863281 16.765625 s 1.875 0.007813 4.6875 0.945313 c 2.808594 0.9375 5.851562 2.109374 7.257812 2.109374 s 11.832032 -1.992187 11.832032 -1.992187 s 12.351562 14.949219 12.351562 18.148437 c 0 3.195313 -1.554687 4.035157 -3.117187 5.699219 c -1.5625 1.660157 -8.386719 8.914063 -9.265625 9.847657 c -0.875 0.929687 -2.699219 2.34375 -1.625 4.886718 c 1.074218 2.539063 2.65625 5.773438 0.894531 9.058594 c -1.757813 3.28125 -4.773437 5.46875 -6.707031 5.109375 c -1.933594 -0.363281 -6.472656 -2.738281 -8.140625 -3.820313 c -1.667969 -1.085937 -6.957031 -5.457031 -6.957031 -7.125 c 0 -1.671874 5.464843 -4.671874 6.476562 -5.351562 c 1.011719 -0.683594 5.617188 -3.324219 5.710938 -4.359375 c 0.097656 -1.035156 0.0625 -1.339844 -1.300782 -3.898437 c -1.359375 -2.558594 -3.808594 -5.972657 -3.402344 -8.246094 c 0.410157 -2.273438 4.359376 -3.453125 7.179688 -4.519532 c 2.816406 -1.066406 8.242188 -3.078124 8.921875 -3.390624 c 0.675781 -0.3125 0.5 -0.613282 -1.554687 -0.804688 c -2.050782 -0.195312 -7.878907 -0.972656 -10.503907 -0.238281 s -7.113281 1.847656 -7.476562 2.441406 c -0.367188 0.589844 -0.6875 0.609375 -0.316407 2.652344 c 0.375 2.039062 2.296876 11.828125 2.484376 13.570312 c 0.1875 1.738281 0.550781 2.886719 -1.320313 3.316407 c -1.871094 0.425781 -5.027344 1.171874 -6.109375 1.171874 s -4.238281 -0.746093 -6.109375 -1.171874 c -1.871094 -0.429688 -1.507813 -1.578126 -1.320313 -3.316407 c 0.1875 -1.742187 2.109376 -11.53125 2.480469 -13.570312 c 0.375 -2.042969 0.054688 -2.0625 -0.308593 -2.652344 c -0.367188 -0.59375 -4.855469 -1.707031 -7.480469 -2.441406 s -8.453125 0.042969 -10.503907 0.238281 c -2.054687 0.191406 -2.230468 0.492188 -1.550781 0.804688 c 0.675781 0.3125 6.101563 2.324218 8.917969 3.390624 c 2.820312 1.066407 6.769531 2.246094 7.175781 4.519532 c 0.410157 2.273437 -2.039062 5.6875 -3.402343 8.246094 c -1.359376 2.558593 -1.394532 2.863281 -1.296876 3.898437 c 0.09375 1.035156 4.699219 3.675781 5.710938 4.359375 c 1.011719 0.679688 6.476562 3.679688 6.476562 5.351562 c 0 1.667969 -5.289062 6.039063 -6.957031 7.125 c -1.667969 1.082032 -6.207031 3.457032 -8.140625 3.820313 c -1.933594 0.359375 -4.949218 -1.828125 -6.710937 -5.109375 c -1.757813 -3.285156 -0.175781 -6.519531 0.898437 -9.058594 c 1.074219 -2.542968 -0.753906 -3.957031 -1.628906 -4.886718 c -0.875 -0.933594 -7.699219 -8.1875 -9.261719 -9.847657 c -1.5625 -1.664062 -3.117187 -2.503906 -3.117187 -5.699219 c 0 -3.199218 12.351562 -18.148437 12.351562 -18.148437 s 10.425782 1.992187 11.832032 1.992187 s 4.449218 -1.171874 7.257812 -2.109374 c 2.8125 -0.9375 4.6875 -0.945313 4.6875 -0.945313 z m 0 51.691406 c 0.640625 0 4.753906 1.453125 8.054688 3.164063 c 3.304687 1.707031 5.695312 2.917968 6.460937 3.398437 c 0.761719 0.476563 0.296875 1.382813 -0.402344 1.875 c -0.695312 0.492188 -10.054687 7.75 -10.960937 8.550781 c -0.910156 0.800782 -2.246094 2.128907 -3.152344 2.128907 s -2.242188 -1.328125 -3.152344 -2.128907 c -0.90625 -0.800781 -10.269531 -8.058593 -10.964844 -8.550781 c -0.695312 -0.492187 -1.160156 -1.398437 -0.394531 -1.875 c 0.761719 -0.480469 3.152344 -1.691406 6.457031 -3.398437 c 3.296876 -1.710938 7.414063 -3.164063 8.054688 -3.164063 z m 0 0" fill="url(#c)"/>
</svg>
