<?xml version="1.0" encoding="UTF-8"?>
<svg height="128px" viewBox="0 0 128 128" width="128px" xmlns="http://www.w3.org/2000/svg" xmlns:xlink="http://www.w3.org/1999/xlink">
    <defs>
        <filter id="a" height="100%" width="100%" x="0%" y="0%">
            <feColorMatrix color-interpolation-filters="sRGB" values="0 0 0 0 1 0 0 0 0 1 0 0 0 0 1 0 0 0 1 0"/>
        </filter>
        <clipPath id="b">
            <path d="m 0 0 h 128 v 128 h -128 z m 0 0"/>
        </clipPath>
        <clipPath id="c">
            <rect height="152" width="192"/>
        </clipPath>
        <g id="d" clip-path="url(#c)">
            <path d="m 78.8125 92.085938 c -4.191406 -1.585938 -8.121094 -4.066407 -11.492188 -7.441407 c -3.367187 -3.363281 -5.839843 -7.277343 -7.421874 -11.449219 l -39.898438 39.894532 v 18.910156 h 18.910156 l 7.746094 -8.886719 h 8.882812 l 0.003907 -8.886719 h 13.4375 l 0.003906 -13.441406 z m -20.875 -10.554688 l 3.191406 3.191406 l -31.558594 31.558594 l -3.191406 -3.191406 z m 0 0" fill="#999999"/>
        </g>
        <clipPath id="e">
            <rect height="128" width="128"/>
        </clipPath>
        <clipPath id="f">
            <rect height="128" width="128"/>
        </clipPath>
        <mask id="g">
            <g filter="url(#a)">
                <g clip-path="url(#f)" filter="url(#a)">
                    <g clip-path="url(#e)">
                        <path d="m 106.484375 21.515625 c -12.683594 -12.679687 -33.230469 -12.691406 -45.910156 -0.011719 c -12.679688 12.679688 -12.640625 33.167969 0.039062 45.847656 c 12.679688 12.679688 33.203125 12.753907 45.882813 0.074219 c 12.679687 -12.679687 12.667968 -33.226562 -0.011719 -45.910156 z m -8.730469 8.730469 c 4.09375 4.09375 4.132813 10.691406 0.089844 14.738281 c -4.046875 4.046875 -10.644531 4.003906 -14.738281 -0.089844 s -4.136719 -10.691406 -0.089844 -14.738281 c 4.046875 -4.042969 10.644531 -4.003906 14.738281 0.089844 z m 0 0" fill="#008000"/>
                        <g clip-path="url(#b)">
                            <use transform="matrix(1 0 0 1 -8 -16)" xlink:href="#d"/>
                        </g>
                    </g>
                </g>
            </g>
        </mask>
        <mask id="h">
            <g filter="url(#a)">
                <rect fill-opacity="0.8" height="184.32" width="184.32" x="-28.16" y="-28.16"/>
            </g>
        </mask>
        <linearGradient id="i" gradientTransform="matrix(0 0.37 -0.98462 0 295.38501 -30.360001)" gradientUnits="userSpaceOnUse" x1="300" x2="428" y1="235" y2="235">
            <stop offset="0" stop-color="#f9f06b"/>
            <stop offset="1" stop-color="#f5c211"/>
        </linearGradient>
        <clipPath id="j">
            <rect height="128" width="128"/>
        </clipPath>
        <clipPath id="k">
            <rect height="128" width="128"/>
        </clipPath>
    </defs>
    <path d="m 106.484375 21.515625 c -12.683594 -12.679687 -33.230469 -12.691406 -45.910156 -0.011719 c -12.679688 12.679688 -12.640625 33.167969 0.039062 45.847656 c 12.679688 12.679688 33.203125 12.753907 45.882813 0.074219 c 12.679687 -12.679687 12.667968 -33.226562 -0.011719 -45.910156 z m -8.730469 8.730469 c 4.09375 4.09375 4.132813 10.691406 0.089844 14.738281 c -4.046875 4.046875 -10.644531 4.003906 -14.738281 -0.089844 s -4.136719 -10.691406 -0.089844 -14.738281 c 4.046875 -4.042969 10.644531 -4.003906 14.738281 0.089844 z m 0 0" fill="#008000"/>
    <use transform="matrix(1 0 0 1 -8 -16)" xlink:href="#d"/>
    <g mask="url(#g)">
        <g clip-path="url(#k)">
            <g mask="url(#h)">
                <g clip-path="url(#j)">
                    <path d="m 128 80.640625 v 47.359375 h -128 v -47.359375 z m 0 0" fill="url(#i)"/>
                    <path d="m 13.308594 80.640625 l 47.355468 47.359375 h 21.214844 l -47.359375 -47.359375 z m 42.421875 0 l 47.363281 47.359375 h 21.214844 l -47.363282 -47.359375 z m 42.429687 0 l 29.839844 29.839844 v -21.210938 l -8.628906 -8.628906 z m -98.160156 7.90625 v 21.214844 l 18.238281 18.238281 h 21.214844 z m 0 0"/>
                </g>
            </g>
        </g>
    </g>
</svg>
