<?xml version="1.0" encoding="UTF-8"?>
<svg height="128px" viewBox="0 0 128 128" width="128px" xmlns="http://www.w3.org/2000/svg" xmlns:xlink="http://www.w3.org/1999/xlink">
    <linearGradient id="a" gradientUnits="userSpaceOnUse" x1="37.38866566951" x2="90.61133307398" y1="37.56933708262" y2="37.56933708262">
        <stop offset="0.25" stop-color="#26a269"/>
        <stop offset="0.5" stop-color="#2ec27e"/>
        <stop offset="0.75" stop-color="#26a269"/>
    </linearGradient>
    <linearGradient id="b" gradientUnits="userSpaceOnUse" x1="45.18293893868" x2="82.81705980481" y1="18.75228444069" y2="56.38638868573">
        <stop offset="0" stop-opacity="0.3"/>
        <stop offset="1" stop-opacity="0.1"/>
    </linearGradient>
    <linearGradient id="c" gradientUnits="userSpaceOnUse" x1="45.18293893868" x2="82.81705980481" y1="15.7522881714" y2="53.38639345525">
        <stop offset="0" stop-color="#57e389"/>
        <stop offset="0.8" stop-color="#33d17a"/>
    </linearGradient>
    <radialGradient id="d" cx="152.641647" cy="186.985672" gradientTransform="matrix(0.27748 0.376911 -0.387208 0.285062 94.554629 -81.955419)" gradientUnits="userSpaceOnUse" r="25.616936">
        <stop offset="0" stop-color="#26a269" stop-opacity="0.6"/>
        <stop offset="1" stop-color="#26a269" stop-opacity="0"/>
    </radialGradient>
    <linearGradient id="e" gradientUnits="userSpaceOnUse" x1="61.04285200083" x2="91.08386566465" y1="106.14447537749" y2="106.14447537749">
        <stop offset="0.25" stop-color="#c0bfbc"/>
        <stop offset="0.5" stop-color="#deddda"/>
        <stop offset="0.85" stop-color="#9a9996"/>
    </linearGradient>
    <clipPath id="f">
        <rect height="152" width="192"/>
    </clipPath>
    <linearGradient id="g" gradientUnits="userSpaceOnUse" x1="61.04285200083" x2="91.08386566465" y1="106.14447537749" y2="106.14447537749">
        <stop offset="0" stop-opacity="0.2"/>
        <stop offset="0.25" stop-opacity="0"/>
        <stop offset="1" stop-opacity="0.05"/>
    </linearGradient>
    <clipPath id="h">
        <rect height="152" width="192"/>
    </clipPath>
    <linearGradient id="i" gradientUnits="userSpaceOnUse" x1="61.04296315435" x2="90.08399399029" y1="104.89547229273" y2="104.89547229273">
        <stop offset="0.15" stop-color="#deddda"/>
        <stop offset="0.55" stop-color="#ffffff"/>
        <stop offset="0.75" stop-color="#c0bfbc"/>
        <stop offset="1" stop-color="#deddda"/>
    </linearGradient>
    <clipPath id="j">
        <rect height="152" width="192"/>
    </clipPath>
    <linearGradient id="k" gradientUnits="userSpaceOnUse" x1="68.43555355102" x2="64.74023276397" y1="100.55859412997" y2="100.55859412997">
        <stop offset="0" stop-color="#c0bfbc"/>
        <stop offset="0.35" stop-color="#f6f5f4"/>
        <stop offset="1" stop-color="#deddda"/>
    </linearGradient>
    <clipPath id="l">
        <rect height="152" width="192"/>
    </clipPath>
    <linearGradient id="m" gradientUnits="userSpaceOnUse" x1="64.74023276397" x2="68.43555355102" y1="100.55859412997" y2="100.55859412997">
        <stop offset="0" stop-color="#9a9996"/>
        <stop offset="0.9" stop-color="#c0bfbc"/>
    </linearGradient>
    <clipPath id="n">
        <rect height="152" width="192"/>
    </clipPath>
    <linearGradient id="o" gradientUnits="userSpaceOnUse" x1="71.34675165767" x2="73.31438098674" y1="66.96874128504" y2="89.45898581297">
        <stop offset="0" stop-opacity="0.8"/>
        <stop offset="0.7" stop-opacity="0"/>
    </linearGradient>
    <clipPath id="p">
        <rect height="152" width="192"/>
    </clipPath>
    <path d="m 64 11 c -14.695312 0 -26.613281 8.898438 -26.613281 23.59375 c 0 17.710938 11.898437 29.546875 26.589843 29.546875 c 14.695313 0 26.636719 -11.839844 26.636719 -29.546875 c 0 -14.695312 -11.917969 -23.59375 -26.613281 -23.59375 z m 0 9.613281 c 4.746094 0 8.59375 3.800781 8.59375 8.492188 c -0.003906 4.6875 -3.847656 8.988281 -8.59375 8.988281 s -8.589844 -4.300781 -8.589844 -8.988281 c -0.003906 -4.691407 3.84375 -8.492188 8.589844 -8.492188 z m 0 0" fill="url(#a)"/>
    <path d="m 64 11 c -14.695312 0 -26.613281 8.898438 -26.613281 23.59375 c 0 17.710938 11.898437 29.546875 26.589843 29.546875 c 14.695313 0 26.636719 -11.839844 26.636719 -29.546875 c 0 -14.695312 -11.917969 -23.59375 -26.613281 -23.59375 z m 0 9.613281 c 4.746094 0 8.59375 3.800781 8.59375 8.492188 c -0.003906 4.6875 -3.847656 8.988281 -8.59375 8.988281 s -8.589844 -4.300781 -8.589844 -8.988281 c -0.003906 -4.691407 3.84375 -8.492188 8.589844 -8.492188 z m 0 0" fill="url(#b)"/>
    <path d="m 64 8 c -14.695312 0 -26.613281 11.898438 -26.613281 26.59375 s 11.898437 26.546875 26.589843 26.546875 c 14.695313 0 26.636719 -11.851563 26.636719 -26.546875 s -11.917969 -26.59375 -26.613281 -26.59375 z m 0 10.117188 c 4.746094 -0.003907 8.59375 3.800781 8.59375 8.488281 c -0.003906 4.6875 -3.847656 8.488281 -8.59375 8.488281 s -8.589844 -3.800781 -8.589844 -8.488281 c -0.003906 -4.6875 3.84375 -8.492188 8.589844 -8.488281 z m 0 0" fill="url(#c)"/>
    <path d="m 64 8 c -14.695312 0 -26.613281 11.898438 -26.613281 26.59375 s 11.898437 26.546875 26.589843 26.546875 c 14.695313 0 26.636719 -11.851563 26.636719 -26.546875 s -11.917969 -26.59375 -26.613281 -26.59375 z m 0 10.117188 c 4.746094 -0.003907 8.59375 3.800781 8.59375 8.488281 c -0.003906 4.6875 -3.847656 8.488281 -8.59375 8.488281 s -8.589844 -3.800781 -8.589844 -8.488281 c -0.003906 -4.6875 3.84375 -8.492188 8.589844 -8.488281 z m 0 0" fill="url(#d)"/>
    <g clip-path="url(#f)" transform="matrix(1 0 0 1 -8 -16)">
        <path d="m 82.953125 76.289062 c -3.347656 1.507813 -7.0625 3.351563 -10.976563 3.351563 c -3.894531 0 -7.597656 -1.835937 -10.929687 -3.335937 l 0.996094 1 l -1 46.238281 l 10.957031 12.457031 l 11.710938 -12.457031 l -0.683594 -9.640625 l 5.324218 -6.144532 l -5.324218 -4.152343 l 8.054687 -8.789063 l -8.054687 -6.792968 c 0.148437 -1.023438 0.445312 -8.078126 0.589844 -11.070313 z m 0 0" fill="url(#e)"/>
    </g>
    <g clip-path="url(#h)" transform="matrix(1 0 0 1 -8 -16)">
        <path d="m 82.953125 76.289062 c -3.347656 1.507813 -7.0625 3.351563 -10.976563 3.351563 c -3.894531 0 -7.597656 -1.835937 -10.929687 -3.335937 l 0.996094 1 l -1 46.238281 l 10.957031 12.457031 l 11.710938 -12.457031 l -0.683594 -9.640625 l 5.324218 -6.144532 l -5.324218 -4.152343 l 8.054687 -8.789063 l -8.054687 -6.792968 c 0.148437 -1.023438 0.445312 -8.078126 0.589844 -11.070313 z m 0 0" fill="url(#g)"/>
    </g>
    <g clip-path="url(#j)" transform="matrix(1 0 0 1 -8 -16)">
        <path d="m 82.949219 76.292969 c -3.347657 1.507812 -7.0625 2.347656 -10.972657 2.347656 c -3.898437 0 -7.597656 -0.835937 -10.933593 -2.335937 v 46.238281 l 10.957031 10.957031 l 10.957031 -10.957031 l -0.660156 -9.636719 l 5.148437 -5.148438 l -5.148437 -5.152343 l 7.789063 -7.789063 l -7.789063 -7.792968 l 0.65625 -10.730469 c -0.003906 0 -0.003906 -0.003907 -0.003906 0 z m 0 0" fill="url(#i)"/>
    </g>
    <g clip-path="url(#l)" transform="matrix(1 0 0 1 -8 -16)">
        <path d="m 64.742188 82.273438 h 3.695312 v 36.570312 h -3.695312 z m 0 0" fill="url(#k)"/>
    </g>
    <g clip-path="url(#n)" transform="matrix(1 0 0 1 -8 -16)">
        <path d="m 64.742188 82.273438 v 36.570312 h 0.496093 v -35.574219 h 3.199219 v -0.996093 z m 0 0" fill="url(#m)"/>
    </g>
    <g clip-path="url(#p)" transform="matrix(1 0 0 1 -8 -16)">
        <path d="m 82.953125 75.789062 s -0.003906 0 -0.003906 0.003907 c -0.027344 0.011719 -0.050781 0.023437 -0.078125 0.035156 c -3.328125 1.484375 -7.011719 2.3125 -10.894532 2.3125 c -3.828124 0 -7.472656 -0.804687 -10.761718 -2.257813 c -0.054688 -0.023437 -0.113282 -0.050781 -0.167969 -0.074218 c 0 -0.003906 -0.003906 -0.003906 -0.003906 -0.003906 v 1.445312 c 3.335937 1.554688 7.035156 2.390625 10.933593 2.390625 c 4.144532 0 8.070313 -0.945313 11.570313 -2.695313 c 0.027344 -0.558593 0.050781 -0.066406 0.070313 -0.488281 v -0.003906 z m 0 0" fill="url(#o)"/>
    </g>
</svg>
