<?xml version="1.0" encoding="UTF-8"?>
<svg height="128px" viewBox="0 0 128 128" width="128px" xmlns="http://www.w3.org/2000/svg" xmlns:xlink="http://www.w3.org/1999/xlink">
    <filter id="a" height="100%" width="100%" x="0%" y="0%">
        <feColorMatrix color-interpolation-filters="sRGB" values="0 0 0 0 1 0 0 0 0 1 0 0 0 0 1 0 0 0 1 0"/>
    </filter>
    <linearGradient id="b" gradientUnits="userSpaceOnUse" x1="8.00000663281" x2="120.0000357437" y1="63.422794526" y2="63.422794526">
        <stop offset="0.15" stop-color="#241f31"/>
        <stop offset="0.4" stop-color="#3d3846"/>
        <stop offset="0.497863" stop-color="#3d3846"/>
        <stop offset="0.6" stop-color="#3d3846"/>
        <stop offset="0.85" stop-color="#241f31"/>
    </linearGradient>
    <radialGradient id="c" cx="64.630669" cy="221.871338" gradientTransform="matrix(4.955705 0 0 0.704458 -254.941072 -113.115871)" gradientUnits="userSpaceOnUse" r="52.693447">
        <stop offset="0" stop-opacity="0"/>
        <stop offset="1" stop-opacity="0.75"/>
    </radialGradient>
    <radialGradient id="d" cx="55.178123" cy="252.186935" gradientTransform="matrix(1.338639 0.448915 -0.113556 0.338618 9.39836 -29.699653)" gradientUnits="userSpaceOnUse" r="11.022862">
        <stop offset="0" stop-color="#ffffff" stop-opacity="0.9"/>
        <stop offset="1" stop-color="#ffffff" stop-opacity="0.7"/>
    </radialGradient>
    <radialGradient id="e" cx="63.394104" cy="183.17778" gradientTransform="matrix(1.062751 0 0 0.647293 -4.016046 -104.161551)" gradientUnits="userSpaceOnUse" r="27.42766">
        <stop offset="0" stop-color="#ffffff"/>
        <stop offset="0.998733" stop-color="#f6f5f4"/>
    </radialGradient>
    <radialGradient id="f" cx="62.519268" cy="174.539536" gradientTransform="matrix(-1.765716 -0.122587 0.0915664 -1.318901 158.182486 246.943501)" gradientUnits="userSpaceOnUse" r="27.494814">
        <stop offset="0.3" stop-opacity="0"/>
        <stop offset="1" stop-opacity="0.02"/>
    </radialGradient>
    <clipPath id="g">
        <rect height="128" width="128"/>
    </clipPath>
    <clipPath id="h">
        <rect height="128" width="128"/>
    </clipPath>
    <mask id="i">
        <g filter="url(#a)">
            <g clip-path="url(#h)" filter="url(#a)">
                <g clip-path="url(#g)">
                    <path d="m 99.222656 97.65625 c -4.722656 4.234375 0.527344 8.53125 5.179688 5.796875 c 1.039062 -1.054687 -0.027344 -4.742187 -5.179688 -5.796875 z m 0 0" fill="#0d0b0f"/>
                    <path d="m 108.75 88.292969 c -3.359375 0.113281 -6.675781 1.832031 -7.589844 5.050781 c 0 2.101562 15.464844 3.476562 15.464844 -0.492188 c -1.101562 -3.191406 -4.511719 -4.675781 -7.875 -4.558593 z m 0 0" fill="#0c0b0f"/>
                    <path d="m 38.003906 97.382812 c -0.261718 -0.003906 -0.527344 0 -0.792968 0.015626 c -4.6875 0.246093 -9.714844 3.636718 -5.714844 7.101562 c 3.660156 3.167969 9.316406 -0.789062 11.011718 -5.207031 c -0.96875 -1.289063 -2.667968 -1.863281 -4.503906 -1.910157 z m 0 0" fill="#0e0d11"/>
                    <path d="m 63.046875 8.320312 c -3.464844 -0.007812 -6.890625 1.25 -9.375 3.792969 l -41.347656 41.988281 c -13.96875 17.300782 9.507812 15.289063 19.570312 20.269532 c 3.609375 3.691406 -13.835937 6.414062 -10.226562 10.109375 c 3.609375 3.6875 21.828125 7.105469 25.445312 10.796875 c 3.609375 3.691406 -7.390625 7.605468 -3.777343 11.296875 c 3.609374 3.6875 11.957031 0.191406 13.523437 8.710937 c 1.113281 6.089844 15.046875 2.617188 21.859375 -2.367187 c 3.609375 -3.695313 -6.90625 -3.347657 -3.296875 -7.039063 c 8.980469 -9.179687 17.335937 -3.335937 20.410156 -12.535156 c 1.515625 -4.542969 -13.21875 -7.007812 -9.601562 -10.695312 c 10.386719 -6.066407 46.289062 -10.015626 29.253906 -27.050782 l -42.855469 -43.484375 c -2.621094 -2.515625 -6.117187 -3.785156 -9.582031 -3.792969 z m 0 0" fill="url(#b)"/>
                    <path d="m 63.046875 8.320312 c -3.464844 -0.007812 -6.890625 1.25 -9.375 3.792969 l -41.347656 41.988281 c -13.96875 17.300782 9.507812 15.289063 19.570312 20.269532 c 3.609375 3.691406 -13.835937 6.414062 -10.226562 10.109375 c 3.609375 3.6875 21.828125 7.105469 25.445312 10.796875 c 3.609375 3.691406 -7.390625 7.605468 -3.777343 11.296875 c 3.609374 3.6875 11.957031 0.191406 13.523437 8.710937 c 1.113281 6.089844 15.046875 2.617188 21.859375 -2.367187 c 3.609375 -3.695313 -6.90625 -3.347657 -3.296875 -7.039063 c 8.980469 -9.179687 17.335937 -3.335937 20.410156 -12.535156 c 1.515625 -4.542969 -13.21875 -7.007812 -9.601562 -10.695312 c 10.386719 -6.066407 46.289062 -10.015626 29.253906 -27.050782 l -42.855469 -43.484375 c -2.621094 -2.515625 -6.117187 -3.785156 -9.582031 -3.792969 z m 0 0" fill="url(#c)"/>
                    <path d="m 43.773438 76.660156 c 1.105468 0.6875 17.816406 4.082032 21.902343 4.757813 c 1.414063 0.300781 0.410157 1.757812 -1.539062 2.742187 c -4.402344 1.171875 -25.746094 -7.5 -20.363281 -7.5 z m 0 0" fill="url(#d)"/>
                    <path d="m 31.839844 34.136719 l -0.03125 0.023437 v 0.003906 c -1.617188 3.171876 -0.8125 5.332032 3.789062 5.882813 c 0.003906 0 8.625 1.089844 11.402344 0 c 2.65625 -1.042969 4.800781 -10.5 6.855469 -12.492187 c 2.058593 -1.996094 2.304687 17.046874 4.453125 17.898437 c 2.144531 0.855469 10.488281 -8.800781 13.4375 -8.492187 c 2.945312 0.308593 6.71875 3.804687 8.386718 4.433593 c 1.671876 0.625 2.003907 -10.414062 1.976563 -11.898437 c -0.023437 -1.488282 10.042969 8.035156 10.042969 8.035156 c 0.664062 -2.015625 0.984375 -4.039062 -0.007813 -5.785156 l -19.515625 -18.949219 c -0.023437 -0.023437 -0.042968 -0.042969 -0.066406 -0.0625 c -2.699219 -2.445313 -6.207031 -3.695313 -9.695312 -3.734375 c -3.402344 0.035156 -6.753907 1.296875 -9.199219 3.796875 z m 0 0" fill="#ffffff"/>
                    <path d="m 63.046875 8 c -3.460937 -0.007812 -6.890625 1.25 -9.375 3.792969 l -18.941406 19.382812 c -2.648438 3.867188 -2.464844 6.554688 2.625 7.164063 c 0 0 7.988281 1.113281 10.449219 0 c 2.460937 -1.117188 4.886718 -9.941406 6.835937 -11.828125 c 1.949219 -1.890625 2.179687 16.136719 4.210937 16.945312 c 2.03125 0.808594 9.929688 -8.328125 12.722657 -8.039062 c 2.792969 0.289062 6.363281 3.601562 7.945312 4.195312 c 1.578125 0.59375 1.894531 -9.859375 1.867188 -11.265625 c -0.023438 -1.40625 9.511719 7.609375 9.511719 7.609375 c 0.632812 -1.925781 0.933593 -3.859375 -0.035157 -5.523437 c -0.003906 -0.003906 -0.003906 -0.003906 -0.003906 -0.007813 l -18.230469 -18.632812 c -2.621094 -2.515625 -6.117187 -3.785157 -9.582031 -3.792969 z m 0 0" fill="url(#e)"/>
                    <path d="m 63.046875 8 c -3.460937 -0.007812 -6.890625 1.25 -9.375 3.792969 l -18.941406 19.382812 c -2.648438 3.867188 -2.464844 6.554688 2.625 7.164063 c 0 0 7.988281 1.113281 10.449219 0 c 2.460937 -1.117188 4.886718 -9.941406 6.835937 -11.828125 c 1.949219 -1.890625 2.179687 16.136719 4.210937 16.945312 c 2.03125 0.808594 9.929688 -8.328125 12.722657 -8.039062 c 2.792969 0.289062 6.363281 3.601562 7.945312 4.195312 c 1.578125 0.59375 1.894531 -9.859375 1.867188 -11.265625 c -0.023438 -1.40625 9.511719 7.609375 9.511719 7.609375 c 0.632812 -1.925781 0.933593 -3.859375 -0.035157 -5.523437 c -0.003906 -0.003906 -0.003906 -0.003906 -0.003906 -0.007813 l -18.230469 -18.632812 c -2.621094 -2.515625 -6.117187 -3.785157 -9.582031 -3.792969 z m 0 0" fill="url(#f)"/>
                </g>
            </g>
        </g>
    </mask>
    <mask id="j">
        <g filter="url(#a)">
            <rect fill-opacity="0.8" height="184.32" width="184.32" x="-28.16" y="-28.16"/>
        </g>
    </mask>
    <linearGradient id="k" gradientTransform="matrix(0 0.37 -0.98462 0 295.38501 -30.360001)" gradientUnits="userSpaceOnUse" x1="300" x2="428" y1="235" y2="235">
        <stop offset="0" stop-color="#f9f06b"/>
        <stop offset="1" stop-color="#f5c211"/>
    </linearGradient>
    <clipPath id="l">
        <rect height="128" width="128"/>
    </clipPath>
    <clipPath id="m">
        <rect height="128" width="128"/>
    </clipPath>
    <path d="m 99.222656 97.65625 c -4.722656 4.234375 0.527344 8.53125 5.179688 5.796875 c 1.039062 -1.054687 -0.027344 -4.742187 -5.179688 -5.796875 z m 0 0" fill="#0d0b0f"/>
    <path d="m 108.75 88.292969 c -3.359375 0.113281 -6.675781 1.832031 -7.589844 5.050781 c 0 2.101562 15.464844 3.476562 15.464844 -0.492188 c -1.101562 -3.191406 -4.511719 -4.675781 -7.875 -4.558593 z m 0 0" fill="#0c0b0f"/>
    <path d="m 38.003906 97.382812 c -0.261718 -0.003906 -0.527344 0 -0.792968 0.015626 c -4.6875 0.246093 -9.714844 3.636718 -5.714844 7.101562 c 3.660156 3.167969 9.316406 -0.789062 11.011718 -5.207031 c -0.96875 -1.289063 -2.667968 -1.863281 -4.503906 -1.910157 z m 0 0" fill="#0e0d11"/>
    <path d="m 63.046875 8.320312 c -3.464844 -0.007812 -6.890625 1.25 -9.375 3.792969 l -41.347656 41.988281 c -13.96875 17.300782 9.507812 15.289063 19.570312 20.269532 c 3.609375 3.691406 -13.835937 6.414062 -10.226562 10.109375 c 3.609375 3.6875 21.828125 7.105469 25.445312 10.796875 c 3.609375 3.691406 -7.390625 7.605468 -3.777343 11.296875 c 3.609374 3.6875 11.957031 0.191406 13.523437 8.710937 c 1.113281 6.089844 15.046875 2.617188 21.859375 -2.367187 c 3.609375 -3.695313 -6.90625 -3.347657 -3.296875 -7.039063 c 8.980469 -9.179687 17.335937 -3.335937 20.410156 -12.535156 c 1.515625 -4.542969 -13.21875 -7.007812 -9.601562 -10.695312 c 10.386719 -6.066407 46.289062 -10.015626 29.253906 -27.050782 l -42.855469 -43.484375 c -2.621094 -2.515625 -6.117187 -3.785156 -9.582031 -3.792969 z m 0 0" fill="url(#b)"/>
    <path d="m 63.046875 8.320312 c -3.464844 -0.007812 -6.890625 1.25 -9.375 3.792969 l -41.347656 41.988281 c -13.96875 17.300782 9.507812 15.289063 19.570312 20.269532 c 3.609375 3.691406 -13.835937 6.414062 -10.226562 10.109375 c 3.609375 3.6875 21.828125 7.105469 25.445312 10.796875 c 3.609375 3.691406 -7.390625 7.605468 -3.777343 11.296875 c 3.609374 3.6875 11.957031 0.191406 13.523437 8.710937 c 1.113281 6.089844 15.046875 2.617188 21.859375 -2.367187 c 3.609375 -3.695313 -6.90625 -3.347657 -3.296875 -7.039063 c 8.980469 -9.179687 17.335937 -3.335937 20.410156 -12.535156 c 1.515625 -4.542969 -13.21875 -7.007812 -9.601562 -10.695312 c 10.386719 -6.066407 46.289062 -10.015626 29.253906 -27.050782 l -42.855469 -43.484375 c -2.621094 -2.515625 -6.117187 -3.785156 -9.582031 -3.792969 z m 0 0" fill="url(#c)"/>
    <path d="m 43.773438 76.660156 c 1.105468 0.6875 17.816406 4.082032 21.902343 4.757813 c 1.414063 0.300781 0.410157 1.757812 -1.539062 2.742187 c -4.402344 1.171875 -25.746094 -7.5 -20.363281 -7.5 z m 0 0" fill="url(#d)"/>
    <path d="m 31.839844 34.136719 l -0.03125 0.023437 v 0.003906 c -1.617188 3.171876 -0.8125 5.332032 3.789062 5.882813 c 0.003906 0 8.625 1.089844 11.402344 0 c 2.65625 -1.042969 4.800781 -10.5 6.855469 -12.492187 c 2.058593 -1.996094 2.304687 17.046874 4.453125 17.898437 c 2.144531 0.855469 10.488281 -8.800781 13.4375 -8.492187 c 2.945312 0.308593 6.71875 3.804687 8.386718 4.433593 c 1.671876 0.625 2.003907 -10.414062 1.976563 -11.898437 c -0.023437 -1.488282 10.042969 8.035156 10.042969 8.035156 c 0.664062 -2.015625 0.984375 -4.039062 -0.007813 -5.785156 l -19.515625 -18.949219 c -0.023437 -0.023437 -0.042968 -0.042969 -0.066406 -0.0625 c -2.699219 -2.445313 -6.207031 -3.695313 -9.695312 -3.734375 c -3.402344 0.035156 -6.753907 1.296875 -9.199219 3.796875 z m 0 0" fill="#ffffff"/>
    <path d="m 63.046875 8 c -3.460937 -0.007812 -6.890625 1.25 -9.375 3.792969 l -18.941406 19.382812 c -2.648438 3.867188 -2.464844 6.554688 2.625 7.164063 c 0 0 7.988281 1.113281 10.449219 0 c 2.460937 -1.117188 4.886718 -9.941406 6.835937 -11.828125 c 1.949219 -1.890625 2.179687 16.136719 4.210937 16.945312 c 2.03125 0.808594 9.929688 -8.328125 12.722657 -8.039062 c 2.792969 0.289062 6.363281 3.601562 7.945312 4.195312 c 1.578125 0.59375 1.894531 -9.859375 1.867188 -11.265625 c -0.023438 -1.40625 9.511719 7.609375 9.511719 7.609375 c 0.632812 -1.925781 0.933593 -3.859375 -0.035157 -5.523437 c -0.003906 -0.003906 -0.003906 -0.003906 -0.003906 -0.007813 l -18.230469 -18.632812 c -2.621094 -2.515625 -6.117187 -3.785157 -9.582031 -3.792969 z m 0 0" fill="url(#e)"/>
    <path d="m 63.046875 8 c -3.460937 -0.007812 -6.890625 1.25 -9.375 3.792969 l -18.941406 19.382812 c -2.648438 3.867188 -2.464844 6.554688 2.625 7.164063 c 0 0 7.988281 1.113281 10.449219 0 c 2.460937 -1.117188 4.886718 -9.941406 6.835937 -11.828125 c 1.949219 -1.890625 2.179687 16.136719 4.210937 16.945312 c 2.03125 0.808594 9.929688 -8.328125 12.722657 -8.039062 c 2.792969 0.289062 6.363281 3.601562 7.945312 4.195312 c 1.578125 0.59375 1.894531 -9.859375 1.867188 -11.265625 c -0.023438 -1.40625 9.511719 7.609375 9.511719 7.609375 c 0.632812 -1.925781 0.933593 -3.859375 -0.035157 -5.523437 c -0.003906 -0.003906 -0.003906 -0.003906 -0.003906 -0.007813 l -18.230469 -18.632812 c -2.621094 -2.515625 -6.117187 -3.785157 -9.582031 -3.792969 z m 0 0" fill="url(#f)"/>
    <g mask="url(#i)">
        <g clip-path="url(#m)">
            <g mask="url(#j)">
                <g clip-path="url(#l)">
                    <path d="m 128 80.640625 v 47.359375 h -128 v -47.359375 z m 0 0" fill="url(#k)"/>
                    <path d="m 13.308594 80.640625 l 47.355468 47.359375 h 21.214844 l -47.359375 -47.359375 z m 42.421875 0 l 47.363281 47.359375 h 21.214844 l -47.363282 -47.359375 z m 42.429687 0 l 29.839844 29.839844 v -21.210938 l -8.628906 -8.628906 z m -98.160156 7.90625 v 21.214844 l 18.238281 18.238281 h 21.214844 z m 0 0"/>
                </g>
            </g>
        </g>
    </g>
</svg>
