<?xml version="1.0" encoding="UTF-8"?>
<svg height="128px" viewBox="0 0 128 128" width="128px" xmlns="http://www.w3.org/2000/svg" xmlns:xlink="http://www.w3.org/1999/xlink">
    <linearGradient id="a" gradientUnits="userSpaceOnUse" x1="8.00000663281" x2="120.0000357437" y1="64.159991526" y2="64.159991526">
        <stop offset="0.15" stop-color="#241f31"/>
        <stop offset="0.4" stop-color="#3d3846"/>
        <stop offset="0.497863" stop-color="#3d3846"/>
        <stop offset="0.6" stop-color="#3d3846"/>
        <stop offset="0.85" stop-color="#241f31"/>
    </linearGradient>
    <radialGradient id="b" cx="64.630669" cy="221.871338" gradientTransform="matrix(4.955705 0 0 0.704458 -254.941072 -112.378674)" gradientUnits="userSpaceOnUse" r="52.693447">
        <stop offset="0" stop-opacity="0"/>
        <stop offset="1" stop-opacity="0.6"/>
    </radialGradient>
    <linearGradient id="c" gradientUnits="userSpaceOnUse" x1="64.00030175452" x2="64.00030175452" y1="8.00006482758" y2="120.00065188276">
        <stop offset="0" stop-color="#3d3846"/>
        <stop offset="0.5" stop-color="#241f31"/>
        <stop offset="1" stop-color="#5e5c64"/>
    </linearGradient>
    <radialGradient id="d" cx="55.178123" cy="252.186935" gradientTransform="matrix(1.338639 0.448915 -0.113556 0.338618 9.39836 -28.962456)" gradientUnits="userSpaceOnUse" r="11.022862">
        <stop offset="0" stop-color="#ffffff" stop-opacity="0.9"/>
        <stop offset="1" stop-color="#ffffff" stop-opacity="0.7"/>
    </radialGradient>
    <radialGradient id="e" cx="63.394104" cy="183.17778" gradientTransform="matrix(1.062751 0 0 0.647293 -4.016046 -103.424354)" gradientUnits="userSpaceOnUse" r="27.42766">
        <stop offset="0" stop-color="#ffffff"/>
        <stop offset="0.998733" stop-color="#f6f5f4"/>
    </radialGradient>
    <radialGradient id="f" cx="62.519268" cy="174.539536" gradientTransform="matrix(-1.765716 -0.122587 0.0915664 -1.318901 158.182486 247.680698)" gradientUnits="userSpaceOnUse" r="27.494814">
        <stop offset="0.3" stop-opacity="0"/>
        <stop offset="1" stop-opacity="0.02"/>
    </radialGradient>
    <path d="m 99.222656 98.394531 c -4.722656 4.234375 0.527344 8.53125 5.179688 5.796875 c 1.039062 -1.054687 -0.027344 -4.742187 -5.179688 -5.796875 z m 0 0" fill="#141218"/>
    <path d="m 97.539062 100.761719 c -1.074218 3.242187 3.089844 5.644531 6.863282 3.429687 c 0.410156 -0.417968 0.492187 -1.242187 0.125 -2.152344 c -0.035156 0.054688 -0.078125 0.105469 -0.125 0.152344 c -2.933594 1.722656 -6.101563 0.65625 -6.863282 -1.429687 z m 0 0" fill="#494652"/>
    <path d="m 108.75 89.027344 c -3.359375 0.117187 -6.675781 1.835937 -7.589844 5.054687 c 0 2.101563 15.464844 3.476563 15.464844 -0.496093 c -1.101562 -3.1875 -4.511719 -4.671876 -7.875 -4.558594 z m 0 0" fill="#15131a"/>
    <path d="m 116.191406 92.621094 c -0.625 0.664062 -1.910156 1.058594 -3.441406 1.28125 c -0.367188 0.058594 -0.769531 0.105468 -1.195312 0.140625 c -0.828126 0.0625 -1.683594 0.089843 -2.558594 0.066406 c -0.015625 0 -0.03125 0.003906 -0.046875 0.003906 c -1.21875 -0.035156 -2.378907 -0.175781 -3.4375 -0.34375 c -1.636719 -0.246093 -3.074219 -0.570312 -3.800781 -1.007812 c -0.230469 0.40625 -0.417969 0.847656 -0.550782 1.320312 c 0 2.097657 15.464844 3.476563 15.464844 -0.492187 c -0.117188 -0.34375 -0.261719 -0.664063 -0.429688 -0.96875 z m 0 0" fill="#423f4c"/>
    <path d="m 38.003906 98.121094 c -0.261718 -0.007813 -0.527344 -0.003906 -0.792968 0.011718 c -4.6875 0.25 -9.714844 3.640626 -5.714844 7.105469 c 3.660156 3.164063 9.316406 -0.789062 11.011718 -5.207031 c -0.96875 -1.289062 -2.667968 -1.863281 -4.503906 -1.910156 z m 0 0" fill="#18161c"/>
    <path d="m 41.871094 99.363281 c -1.421875 2.480469 -3.984375 4.570313 -6.507813 4.957031 c -0.523437 0.132813 -1.003906 0.144532 -1.457031 0.019532 c -0.851562 -0.117188 -1.675781 -0.464844 -2.410156 -1.101563 c -0.617188 -0.535156 -1.019532 -1.066406 -1.238282 -1.585937 c -0.476562 1.089844 -0.210937 2.332031 1.238282 3.585937 c 3.660156 3.164063 9.316406 -0.789062 11.015625 -5.207031 c -0.1875 -0.25 -0.402344 -0.472656 -0.640625 -0.667969 z m 0 0" fill="#4d4b55"/>
    <path d="m 54.90625 27.109375 c -0.085938 0.003906 -0.175781 0.050781 -0.265625 0.140625 c -1.949219 1.886719 -4.375 10.707031 -6.835937 11.824219 c -2.460938 1.117187 -10.445313 0 -10.445313 0 c -3.550781 -0.421875 -4.707031 -1.859375 -4.191406 -3.996094 c -0.003907 0.019531 -0.015625 0.042969 -0.023438 0.066406 l -0.902343 0.902344 l -0.074219 0.078125 l -19.078125 19.363281 c -3.398438 4.214844 -4.347656 7.097657 -4.03125 8.953125 c 0.316406 1.859375 1.875 3.15625 4.429687 4.238282 c 5.109375 2.167968 13.492188 2.886718 18.851563 5.539062 c 0.097656 0.050781 0.191406 0.117188 0.269531 0.199219 c 0.613281 0.625 0.917969 1.539062 0.695313 2.316406 c -0.222657 0.773437 -0.761719 1.304687 -1.378907 1.785156 c -1.238281 0.960938 -2.992187 1.75 -4.722656 2.554688 c -1.730469 0.800781 -3.429687 1.613281 -4.335937 2.316406 c -0.453126 0.351563 -0.65625 0.664063 -0.683594 0.761719 c -0.027344 0.09375 -0.089844 0.070312 0.203125 0.367187 c 0.660156 0.675781 2.414062 1.617188 4.640625 2.496094 c 2.226562 0.878906 4.941406 1.765625 7.671875 2.652344 s 5.472656 1.777343 7.789062 2.695312 c 2.316407 0.914063 4.195313 1.789063 5.339844 2.957031 c 0.570313 0.582032 0.925781 1.273438 1.007813 1.984376 c 0.078124 0.707031 -0.109376 1.371093 -0.398438 1.960937 c -0.582031 1.171875 -1.574219 2.148437 -2.496094 3.097656 s -1.78125 1.878907 -2.132812 2.59375 c -0.179688 0.355469 -0.230469 0.625 -0.207032 0.855469 c 0.023438 0.226562 0.117188 0.460938 0.449219 0.800781 c 1.421875 1.457031 4.160157 1.585938 7.046875 2.273438 c 1.441406 0.34375 2.917969 0.867187 4.15625 1.953125 c 1.234375 1.082031 2.167969 2.710937 2.589844 5.007812 c 0.207031 1.140625 0.878906 1.730469 2.21875 2.117188 c 1.339844 0.382812 3.28125 0.394531 5.429688 0.042968 c 4.261718 -0.695312 9.320312 -2.769531 12.558593 -5.113281 c 0.289063 -0.324219 0.421875 -0.570312 0.433594 -0.628906 c 0.003906 -0.023437 0.007813 -0.035156 0.007813 -0.039063 v -0.015624 c -0.003907 -0.011719 -0.023438 -0.03125 -0.0625 -0.085938 c -0.171876 -0.21875 -0.933594 -0.675781 -1.792969 -1.09375 c -0.863281 -0.417969 -1.828125 -0.792969 -2.503907 -1.664062 c -0.335937 -0.4375 -0.558593 -1.089844 -0.4375 -1.722657 c 0.117188 -0.636719 0.480469 -1.183593 1.015626 -1.730469 c 4.667968 -4.777343 9.339843 -5.703124 12.90625 -6.53125 c 1.78125 -0.414062 3.269531 -0.820312 4.441406 -1.589843 c 1.171875 -0.765625 2.109375 -1.886719 2.824218 -4.027344 c 0.109376 -0.324219 0.082032 -0.535156 -0.074218 -0.855469 c -0.160156 -0.324218 -0.496094 -0.722656 -0.984375 -1.132812 c -0.984375 -0.820313 -2.535157 -1.660156 -4.054688 -2.484375 c -1.523437 -0.824219 -3.019531 -1.609375 -4.042969 -2.601563 c -0.515624 -0.496094 -0.957031 -1.089844 -1.050781 -1.851562 c -0.097656 -0.765625 0.25 -1.554688 0.84375 -2.15625 c 0.058594 -0.066406 0.128907 -0.121094 0.207031 -0.164063 c 2.773438 -1.621093 6.980469 -2.988281 11.542969 -4.476562 c 4.5625 -1.492188 9.460938 -3.082031 13.441407 -4.976563 c 3.980468 -1.894531 6.957031 -4.113281 7.921874 -6.539062 c 0.480469 -1.214844 0.53125 -2.496094 -0.027343 -4.050782 c -0.558594 -1.558593 -1.769531 -3.375 -3.828125 -5.433593 c -0.003906 -0.003907 -0.003906 -0.003907 -0.007813 -0.007813 l -22.199219 -22.523437 v -0.003907 l -1.089843 -1.089843 c 0 -0.011719 0 -0.023438 0 -0.03125 c 0.039062 1.066406 -0.214844 2.1875 -0.585938 3.304687 c 0 0 -9.53125 -9.015625 -9.507812 -7.609375 c 0.027343 1.40625 -0.289063 11.859375 -1.871094 11.265625 c -1.578125 -0.59375 -5.152344 -3.90625 -7.941406 -4.195312 c -2.792969 -0.289063 -10.691407 8.847656 -12.722657 8.039062 c -1.9375 -0.769531 -2.238281 -17.183594 -3.949218 -17.082031 z m 36.574219 6.277344 c 0 -0.015625 0 -0.03125 0 -0.046875 c -0.003907 -0.03125 -0.007813 -0.0625 -0.011719 -0.09375 c 0.003906 0.046875 0.011719 0.09375 0.011719 0.140625 z m -0.082031 -0.730469 c 0.011718 0.0625 0.023437 0.125 0.03125 0.191406 c 0 -0.011718 0 -0.023437 -0.003907 -0.03125 c -0.003906 -0.039062 -0.011719 -0.078125 -0.019531 -0.117187 c 0 -0.011719 -0.003906 -0.027344 -0.007812 -0.042969 z m -57.742188 1.074219 v 0.003906 c 0.003906 -0.003906 0.003906 -0.003906 0.003906 -0.003906 z m -0.261719 0.605469 h 0.003907 z m -23.265625 23.53125 c -0.589844 0.933593 -1.050781 1.800781 -1.386718 2.609374 c 0.335937 -0.808593 0.796874 -1.675781 1.386718 -2.609374 z m 21.917969 17.417968 c 0.09375 0.113282 0.167969 0.226563 0.222656 0.339844 c -0.054687 -0.113281 -0.128906 -0.226562 -0.222656 -0.339844 z m 0.328125 0.675782 c 0.019531 0.109374 0.019531 0.21875 0.003906 0.328124 c 0.015625 -0.109374 0.015625 -0.21875 -0.003906 -0.328124 z m 54.042969 10.011718 c 0.339843 0.328125 0.796875 0.65625 1.296875 0.980469 c -0.503906 -0.328125 -0.957032 -0.652344 -1.296875 -0.980469 z m 8.230469 5.207032 c 0.070312 0.058593 0.140624 0.121093 0.207031 0.1875 c -0.066407 -0.066407 -0.136719 -0.128907 -0.207031 -0.1875 z m -47.019532 5.53125 c 0.058594 0.113281 0.101563 0.230468 0.140625 0.347656 c -0.039062 -0.117188 -0.082031 -0.234375 -0.140625 -0.347656 z m 0.21875 1.050781 c -0.015625 0.230469 -0.070312 0.464843 -0.15625 0.703125 c 0.085938 -0.238282 0.140625 -0.472656 0.15625 -0.703125 z m -0.308594 1.058593 c -0.117187 0.234376 -0.261718 0.46875 -0.429687 0.707032 c 0.167969 -0.238282 0.3125 -0.472656 0.429687 -0.707032 z m -0.984374 1.417969 c -1.015626 1.183594 -2.382813 2.378907 -3.214844 3.5625 c 0.832031 -1.183593 2.199218 -2.378906 3.214844 -3.5625 z m -3.449219 3.914063 c -0.144531 0.234375 -0.261719 0.472656 -0.347657 0.707031 c 0.085938 -0.234375 0.203126 -0.472656 0.347657 -0.707031 z m -0.453125 1.0625 c -0.050782 0.234375 -0.070313 0.46875 -0.042969 0.703125 c -0.027344 -0.234375 -0.007813 -0.46875 0.042969 -0.703125 z m -0.042969 0.703125 c 0.011719 0.113281 0.035156 0.230469 0.070313 0.347656 c -0.035157 -0.117187 -0.058594 -0.234375 -0.070313 -0.347656 z m 0.132813 0.523437 c 0.046874 0.117188 0.105468 0.230469 0.179687 0.347656 c -0.074219 -0.117187 -0.132813 -0.230468 -0.179687 -0.347656 z m 32.359374 2.511719 c 0.195313 0.191406 0.449219 0.367187 0.730469 0.539063 c -0.28125 -0.171876 -0.535156 -0.347657 -0.730469 -0.539063 z m -19.429687 3.882813 c 0.210937 0.328124 0.40625 0.691406 0.578125 1.09375 c -0.171875 -0.402344 -0.367188 -0.765626 -0.578125 -1.09375 z m 1.222656 3.328124 c 0.03125 0.136719 0.0625 0.273438 0.105469 0.402344 c -0.042969 -0.128906 -0.074219 -0.265625 -0.105469 -0.402344 z m 0.105469 0.402344 c 0.089844 0.257813 0.203125 0.492188 0.34375 0.710938 c -0.140625 -0.21875 -0.253906 -0.453125 -0.34375 -0.710938 z m 0 0" fill="url(#a)"/>
    <path d="m 54.90625 27.109375 c -0.085938 0.003906 -0.175781 0.050781 -0.265625 0.140625 c -1.949219 1.886719 -4.375 10.707031 -6.835937 11.824219 c -2.460938 1.117187 -10.445313 0 -10.445313 0 c -3.550781 -0.421875 -4.707031 -1.859375 -4.191406 -3.996094 c -0.003907 0.019531 -0.015625 0.042969 -0.023438 0.066406 l -0.902343 0.902344 l -0.074219 0.078125 l -19.078125 19.363281 c -3.398438 4.214844 -4.347656 7.097657 -4.03125 8.953125 c 0.316406 1.859375 1.875 3.15625 4.429687 4.238282 c 5.109375 2.167968 13.492188 2.886718 18.851563 5.539062 c 0.097656 0.050781 0.191406 0.117188 0.269531 0.199219 c 0.613281 0.625 0.917969 1.539062 0.695313 2.316406 c -0.222657 0.773437 -0.761719 1.304687 -1.378907 1.785156 c -1.238281 0.960938 -2.992187 1.75 -4.722656 2.554688 c -1.730469 0.800781 -3.429687 1.613281 -4.335937 2.316406 c -0.453126 0.351563 -0.65625 0.664063 -0.683594 0.761719 c -0.027344 0.09375 -0.089844 0.070312 0.203125 0.367187 c 0.660156 0.675781 2.414062 1.617188 4.640625 2.496094 c 2.226562 0.878906 4.941406 1.765625 7.671875 2.652344 s 5.472656 1.777343 7.789062 2.695312 c 2.316407 0.914063 4.195313 1.789063 5.339844 2.957031 c 0.570313 0.582032 0.925781 1.273438 1.007813 1.984376 c 0.078124 0.707031 -0.109376 1.371093 -0.398438 1.960937 c -0.582031 1.171875 -1.574219 2.148437 -2.496094 3.097656 s -1.78125 1.878907 -2.132812 2.59375 c -0.179688 0.355469 -0.230469 0.625 -0.207032 0.855469 c 0.023438 0.226562 0.117188 0.460938 0.449219 0.800781 c 1.421875 1.457031 4.160157 1.585938 7.046875 2.273438 c 1.441406 0.34375 2.917969 0.867187 4.15625 1.953125 c 1.234375 1.082031 2.167969 2.710937 2.589844 5.007812 c 0.207031 1.140625 0.878906 1.730469 2.21875 2.117188 c 1.339844 0.382812 3.28125 0.394531 5.429688 0.042968 c 4.261718 -0.695312 9.320312 -2.769531 12.558593 -5.113281 c 0.289063 -0.324219 0.421875 -0.570312 0.433594 -0.628906 c 0.003906 -0.023437 0.007813 -0.035156 0.007813 -0.039063 v -0.015624 c -0.003907 -0.011719 -0.023438 -0.03125 -0.0625 -0.085938 c -0.171876 -0.21875 -0.933594 -0.675781 -1.792969 -1.09375 c -0.863281 -0.417969 -1.828125 -0.792969 -2.503907 -1.664062 c -0.335937 -0.4375 -0.558593 -1.089844 -0.4375 -1.722657 c 0.117188 -0.636719 0.480469 -1.183593 1.015626 -1.730469 c 4.667968 -4.777343 9.339843 -5.703124 12.90625 -6.53125 c 1.78125 -0.414062 3.269531 -0.820312 4.441406 -1.589843 c 1.171875 -0.765625 2.109375 -1.886719 2.824218 -4.027344 c 0.109376 -0.324219 0.082032 -0.535156 -0.074218 -0.855469 c -0.160156 -0.324218 -0.496094 -0.722656 -0.984375 -1.132812 c -0.984375 -0.820313 -2.535157 -1.660156 -4.054688 -2.484375 c -1.523437 -0.824219 -3.019531 -1.609375 -4.042969 -2.601563 c -0.515624 -0.496094 -0.957031 -1.089844 -1.050781 -1.851562 c -0.097656 -0.765625 0.25 -1.554688 0.84375 -2.15625 c 0.058594 -0.066406 0.128907 -0.121094 0.207031 -0.164063 c 2.773438 -1.621093 6.980469 -2.988281 11.542969 -4.476562 c 4.5625 -1.492188 9.460938 -3.082031 13.441407 -4.976563 c 3.980468 -1.894531 6.957031 -4.113281 7.921874 -6.539062 c 0.480469 -1.214844 0.53125 -2.496094 -0.027343 -4.050782 c -0.558594 -1.558593 -1.769531 -3.375 -3.828125 -5.433593 c -0.003906 -0.003907 -0.003906 -0.003907 -0.007813 -0.007813 l -22.199219 -22.523437 v -0.003907 l -1.089843 -1.089843 c 0 -0.011719 0 -0.023438 0 -0.03125 c 0.039062 1.066406 -0.214844 2.1875 -0.585938 3.304687 c 0 0 -9.53125 -9.015625 -9.507812 -7.609375 c 0.027343 1.40625 -0.289063 11.859375 -1.871094 11.265625 c -1.578125 -0.59375 -5.152344 -3.90625 -7.941406 -4.195312 c -2.792969 -0.289063 -10.691407 8.847656 -12.722657 8.039062 c -1.9375 -0.769531 -2.238281 -17.183594 -3.949218 -17.082031 z m 36.574219 6.277344 c 0 -0.015625 0 -0.03125 0 -0.046875 c -0.003907 -0.03125 -0.007813 -0.0625 -0.011719 -0.09375 c 0.003906 0.046875 0.011719 0.09375 0.011719 0.140625 z m -0.082031 -0.730469 c 0.011718 0.0625 0.023437 0.125 0.03125 0.191406 c 0 -0.011718 0 -0.023437 -0.003907 -0.03125 c -0.003906 -0.039062 -0.011719 -0.078125 -0.019531 -0.117187 c 0 -0.011719 -0.003906 -0.027344 -0.007812 -0.042969 z m -57.742188 1.074219 v 0.003906 c 0.003906 -0.003906 0.003906 -0.003906 0.003906 -0.003906 z m -0.261719 0.605469 h 0.003907 z m -23.265625 23.53125 c -0.589844 0.933593 -1.050781 1.800781 -1.386718 2.609374 c 0.335937 -0.808593 0.796874 -1.675781 1.386718 -2.609374 z m 21.917969 17.417968 c 0.09375 0.113282 0.167969 0.226563 0.222656 0.339844 c -0.054687 -0.113281 -0.128906 -0.226562 -0.222656 -0.339844 z m 0.328125 0.675782 c 0.019531 0.109374 0.019531 0.21875 0.003906 0.328124 c 0.015625 -0.109374 0.015625 -0.21875 -0.003906 -0.328124 z m 54.042969 10.011718 c 0.339843 0.328125 0.796875 0.65625 1.296875 0.980469 c -0.503906 -0.328125 -0.957032 -0.652344 -1.296875 -0.980469 z m 8.230469 5.207032 c 0.070312 0.058593 0.140624 0.121093 0.207031 0.1875 c -0.066407 -0.066407 -0.136719 -0.128907 -0.207031 -0.1875 z m -47.019532 5.53125 c 0.058594 0.113281 0.101563 0.230468 0.140625 0.347656 c -0.039062 -0.117188 -0.082031 -0.234375 -0.140625 -0.347656 z m 0.21875 1.050781 c -0.015625 0.230469 -0.070312 0.464843 -0.15625 0.703125 c 0.085938 -0.238282 0.140625 -0.472656 0.15625 -0.703125 z m -0.308594 1.058593 c -0.117187 0.234376 -0.261718 0.46875 -0.429687 0.707032 c 0.167969 -0.238282 0.3125 -0.472656 0.429687 -0.707032 z m -0.984374 1.417969 c -1.015626 1.183594 -2.382813 2.378907 -3.214844 3.5625 c 0.832031 -1.183593 2.199218 -2.378906 3.214844 -3.5625 z m -3.449219 3.914063 c -0.144531 0.234375 -0.261719 0.472656 -0.347657 0.707031 c 0.085938 -0.234375 0.203126 -0.472656 0.347657 -0.707031 z m -0.453125 1.0625 c -0.050782 0.234375 -0.070313 0.46875 -0.042969 0.703125 c -0.027344 -0.234375 -0.007813 -0.46875 0.042969 -0.703125 z m -0.042969 0.703125 c 0.011719 0.113281 0.035156 0.230469 0.070313 0.347656 c -0.035157 -0.117187 -0.058594 -0.234375 -0.070313 -0.347656 z m 0.132813 0.523437 c 0.046874 0.117188 0.105468 0.230469 0.179687 0.347656 c -0.074219 -0.117187 -0.132813 -0.230468 -0.179687 -0.347656 z m 32.359374 2.511719 c 0.195313 0.191406 0.449219 0.367187 0.730469 0.539063 c -0.28125 -0.171876 -0.535156 -0.347657 -0.730469 -0.539063 z m -19.429687 3.882813 c 0.210937 0.328124 0.40625 0.691406 0.578125 1.09375 c -0.171875 -0.402344 -0.367188 -0.765626 -0.578125 -1.09375 z m 1.222656 3.328124 c 0.03125 0.136719 0.0625 0.273438 0.105469 0.402344 c -0.042969 -0.128906 -0.074219 -0.265625 -0.105469 -0.402344 z m 0.105469 0.402344 c 0.089844 0.257813 0.203125 0.492188 0.34375 0.710938 c -0.140625 -0.21875 -0.253906 -0.453125 -0.34375 -0.710938 z m 0 0" fill="url(#b)"/>
    <path d="m 63.046875 8.738281 c -0.867187 -0.003906 -1.730469 0.074219 -2.574219 0.230469 c 0.84375 -0.15625 1.707032 -0.234375 2.574219 -0.230469 z m 27.542969 22.433594 c 0.617187 1.054687 0.992187 2.21875 0.824218 3.421875 l 22.640626 23.140625 c 0.003906 0.003906 0.011718 0.011719 0.015624 0.015625 c 1.992188 1.992188 3.101563 3.703125 3.589844 5.066406 c 0.488282 1.359375 0.433594 2.34375 0.039063 3.34375 c -0.789063 1.992188 -3.527344 4.15625 -7.417969 6.007813 c -3.890625 1.851562 -8.761719 3.433593 -13.324219 4.925781 s -8.785156 2.84375 -11.734375 4.566406 c -0.152344 0.085938 -0.296875 0.199219 -0.417968 0.324219 c -0.730469 0.742187 -1.261719 1.882813 -1.121094 2.984375 c 0.136718 1.097656 0.742187 1.859375 1.347656 2.445312 c 1.203125 1.164063 2.734375 1.933594 4.261719 2.757813 c 1.527343 0.824219 3.03125 1.664063 3.886719 2.375 c 0.425781 0.355469 0.664062 0.671875 0.730468 0.808594 c 0.019532 0.035156 0.035156 0.054687 0.042969 0.0625 v 0.003906 h -0.003906 l -0.003907 0.003906 v 0.003907 c -0.003906 0.003906 -0.007812 0.011718 -0.011718 0.019531 c -0.660156 1.980469 -1.429688 2.863281 -2.417969 3.511719 c -0.988281 0.648437 -2.359375 1.035156 -4.125 1.449218 c -3.539063 0.820313 -8.542969 1.84375 -13.398437 6.808594 c -0.613282 0.628906 -1.113282 1.328125 -1.28125 2.246094 c -0.171876 0.917968 0.167968 1.917968 0.632812 2.515625 c 0.925781 1.195312 1.992188 1.535156 2.855469 1.953125 c 0.453125 0.21875 0.492187 0.257812 0.753906 0.421875 c -3.089844 2.105469 -7.722656 4.027343 -11.625 4.664062 c -2.054687 0.335938 -3.878906 0.300781 -4.988281 -0.019531 c -1.105469 -0.320312 -1.375 -0.574219 -1.511719 -1.335938 c -0.453125 -2.464843 -1.5 -4.339843 -2.914063 -5.582031 c -1.417968 -1.238281 -3.070312 -1.808593 -4.585937 -2.167969 c -3.03125 -0.722656 -5.515625 -0.933593 -6.5625 -2 c -0.140625 -0.144531 -0.171875 -0.199218 -0.171875 -0.214843 v -0.003907 h 0.003906 c 0 -0.019531 0.007813 -0.101562 0.105469 -0.296874 c 0.238281 -0.484376 1.03125 -1.390626 1.957031 -2.339844 c 0.921875 -0.953125 1.976563 -1.949219 2.671875 -3.351563 c 0.347657 -0.703125 0.601563 -1.570312 0.496094 -2.519531 c -0.105469 -0.945312 -0.59375 -1.863281 -1.285156 -2.570312 c -1.382813 -1.414063 -3.324219 -2.257813 -5.6875 -3.1875 c -2.363281 -0.933594 -5.117188 -1.828126 -7.84375 -2.714844 c -2.730469 -0.890625 -5.4375 -1.769532 -7.617188 -2.632813 c -1.914062 -0.753906 -3.128906 -1.496093 -3.761719 -1.984375 c 0.777344 -0.570312 2.324219 -1.347656 3.992188 -2.121094 c 1.726562 -0.800781 3.511719 -1.578124 4.914062 -2.667968 c 0.703126 -0.546875 1.40625 -1.191406 1.726563 -2.304688 c 0.320313 -1.117187 -0.164063 -2.5 -0.9375 -3.292968 c -0.160156 -0.160157 -0.34375 -0.292969 -0.546875 -0.390626 c -5.683594 -2.816406 -14.066406 -3.515624 -18.902344 -5.566406 c -2.417968 -1.023437 -3.597656 -2.085937 -3.832031 -3.484375 c -0.238281 -1.390625 0.507813 -4.035156 3.8125 -8.140625 l 19.226563 -19.667968 c -0.207032 -1.199219 0.679687 -2.746094 1.914062 -4.546876 l -22.675781 22.925782 c -13.96875 17.300781 9.507812 15.289062 19.570312 20.269531 c 3.609375 3.691406 -13.835937 6.414063 -10.222656 10.109375 c 3.609375 3.6875 21.824219 7.105469 25.441406 10.796875 c 3.609375 3.6875 -7.390625 7.605469 -3.777343 11.296875 c 3.609374 3.6875 11.957031 0.191406 13.523437 8.710938 c 1.113281 6.089843 15.046875 2.617187 21.859375 -2.367188 c 3.609375 -3.695312 -6.90625 -3.347656 -3.292969 -7.039062 c 8.976563 -9.179688 17.332031 -3.335938 20.40625 -12.535157 c 1.515625 -4.546875 -13.21875 -7.007812 -9.601562 -10.695312 c 10.386719 -6.066407 46.289062 -10.015625 29.253906 -27.050781 z m 0 0" fill="url(#c)"/>
    <path d="m 43.773438 77.398438 c 1.105468 0.6875 17.816406 4.082031 21.902343 4.757812 c 1.414063 0.296875 0.410157 1.757812 -1.539062 2.742188 c -4.402344 1.171874 -25.746094 -7.5 -20.363281 -7.5 z m 0 0" fill="url(#d)"/>
    <path d="m 43.558594 77.402344 c -4.550782 0.246094 16.238281 8.648437 20.578125 7.496094 c 1.683593 -0.851563 2.660156 -2.054688 1.988281 -2.558594 c -0.339844 0.507812 -1.058594 1.085937 -1.988281 1.558594 c -3.464844 0.917968 -17.402344 -4.246094 -20.578125 -6.496094 z m 0 0" fill="#ffffff" fill-opacity="0.25"/>
    <path d="m 31.839844 34.871094 l -0.03125 0.027344 v 0.003906 c -1.617188 3.171875 -0.8125 5.332031 3.789062 5.882812 c 0.003906 0 8.625 1.089844 11.402344 0 c 2.65625 -1.042968 4.800781 -10.5 6.855469 -12.496094 c 2.058593 -1.992187 2.304687 17.046876 4.453125 17.902344 c 2.144531 0.851563 10.488281 -8.800781 13.4375 -8.492187 c 2.945312 0.304687 6.71875 3.804687 8.386718 4.429687 c 1.671876 0.628906 2.003907 -10.410156 1.976563 -11.898437 c -0.023437 -1.484375 10.042969 8.035156 10.042969 8.035156 c 0.664062 -2.011719 0.984375 -4.035156 -0.007813 -5.785156 l -19.515625 -18.949219 c -0.023437 -0.019531 -0.042968 -0.039062 -0.066406 -0.0625 c -2.699219 -2.441406 -6.207031 -3.695312 -9.695312 -3.730469 c -3.402344 0.035157 -6.753907 1.292969 -9.199219 3.792969 z m 0 0" fill="#ffffff"/>
    <path d="m 63.046875 8.738281 c -3.460937 -0.007812 -6.890625 1.25 -9.375 3.792969 l -18.941406 19.382812 c -2.648438 3.867188 -2.464844 6.554688 2.625 7.160157 c 0 0 7.988281 1.117187 10.449219 0 c 2.460937 -1.113281 4.886718 -9.9375 6.835937 -11.824219 c 1.949219 -1.890625 2.179687 16.136719 4.210937 16.945312 c 2.03125 0.808594 9.929688 -8.332031 12.722657 -8.039062 c 2.792969 0.289062 6.363281 3.601562 7.945312 4.195312 c 1.578125 0.589844 1.894531 -9.859374 1.867188 -11.265624 c -0.023438 -1.40625 9.511719 7.605468 9.511719 7.605468 c 0.632812 -1.925781 0.933593 -3.855468 -0.035157 -5.523437 c -0.003906 0 -0.003906 -0.003907 -0.003906 -0.003907 l -18.230469 -18.632812 c -2.621094 -2.515625 -6.117187 -3.785156 -9.582031 -3.792969 z m 0 0" fill="url(#e)"/>
    <path d="m 63.046875 8.738281 c -3.460937 -0.007812 -6.890625 1.25 -9.375 3.792969 l -18.941406 19.382812 c -2.648438 3.867188 -2.464844 6.554688 2.625 7.160157 c 0 0 7.988281 1.117187 10.449219 0 c 2.460937 -1.113281 4.886718 -9.9375 6.835937 -11.824219 c 1.949219 -1.890625 2.179687 16.136719 4.210937 16.945312 c 2.03125 0.808594 9.929688 -8.332031 12.722657 -8.039062 c 2.792969 0.289062 6.363281 3.601562 7.945312 4.195312 c 1.578125 0.589844 1.894531 -9.859374 1.867188 -11.265624 c -0.023438 -1.40625 9.511719 7.605468 9.511719 7.605468 c 0.632812 -1.925781 0.933593 -3.855468 -0.035157 -5.523437 c -0.003906 0 -0.003906 -0.003907 -0.003906 -0.003907 l -18.230469 -18.632812 c -2.621094 -2.515625 -6.117187 -3.785156 -9.582031 -3.792969 z m 0 0" fill="url(#f)"/>
</svg>
