<?xml version="1.0" encoding="UTF-8"?>
<svg height="128px" viewBox="0 0 128 128" width="128px" xmlns="http://www.w3.org/2000/svg" xmlns:xlink="http://www.w3.org/1999/xlink">
    <filter id="a" height="100%" width="100%" x="0%" y="0%">
        <feColorMatrix color-interpolation-filters="sRGB" values="0 0 0 0 1 0 0 0 0 1 0 0 0 0 1 0 0 0 1 0"/>
    </filter>
    <linearGradient id="b" gradientUnits="userSpaceOnUse" x1="11.306555" x2="116.693451" y1="64.150253" y2="64.150253">
        <stop offset="0.15" stop-color="#241f31"/>
        <stop offset="0.4" stop-color="#3d3846"/>
        <stop offset="0.497863" stop-color="#3d3846"/>
        <stop offset="0.6" stop-color="#3d3846"/>
        <stop offset="0.85" stop-color="#241f31"/>
    </linearGradient>
    <radialGradient id="c" cx="64.630669" cy="221.871338" gradientTransform="matrix(4.663092 0 0 0.662863 -236.108994 -101.964531)" gradientUnits="userSpaceOnUse" r="52.693447">
        <stop offset="0" stop-opacity="0"/>
        <stop offset="1" stop-opacity="0.75"/>
    </radialGradient>
    <radialGradient id="d" cx="55.178123" cy="252.186935" gradientTransform="matrix(1.193846 0.452755 -0.119167 0.314226 19.356386 -24.038895)" gradientUnits="userSpaceOnUse" r="11.022862">
        <stop offset="0" stop-color="#ffffff"/>
        <stop offset="1" stop-color="#ffffff" stop-opacity="0.7"/>
    </radialGradient>
    <radialGradient id="e" cx="63.394104" cy="183.17778" gradientTransform="matrix(1 0 0 0.609074 0 -93.538925)" gradientUnits="userSpaceOnUse" r="27.42766">
        <stop offset="0.5" stop-color="#ffffff"/>
        <stop offset="1" stop-color="#f6f5f4"/>
    </radialGradient>
    <clipPath id="f">
        <rect height="128" width="128"/>
    </clipPath>
    <clipPath id="g">
        <rect height="128" width="128"/>
    </clipPath>
    <mask id="h">
        <g filter="url(#a)">
            <g clip-path="url(#g)" filter="url(#a)">
                <g clip-path="url(#f)">
                    <path d="m 97.140625 96.363281 c -4.441406 3.984375 0.496094 8.027344 4.875 5.453125 c 0.976563 -0.992187 -0.023437 -4.460937 -4.875 -5.453125 z m 0 0" fill="#0d0b0f"/>
                    <path d="m 106.109375 87.550781 c -3.164063 0.109375 -6.285156 1.726563 -7.144531 4.753907 c 0 1.976562 14.554687 3.269531 14.554687 -0.464844 c -1.039062 -3 -4.246093 -4.398438 -7.410156 -4.289063 z m 0 0" fill="#0c0b0f"/>
                    <path d="m 39.539062 96.105469 c -0.246093 -0.003907 -0.496093 0 -0.746093 0.011719 c -4.410157 0.234374 -9.140625 3.425781 -5.378907 6.683593 c 3.445313 2.980469 8.769532 -0.738281 10.363282 -4.898437 c -0.914063 -1.210938 -2.511719 -1.75 -4.238282 -1.796875 z m 0 0" fill="#0e0d11"/>
                    <path d="m 63.101562 12.300781 c -3.257812 -0.007812 -6.484374 1.175781 -8.820312 3.570313 l -38.90625 39.507812 c -13.144531 16.28125 8.945312 14.386719 18.414062 19.074219 c 3.398438 3.472656 -13.015624 6.035156 -9.621093 9.511719 c 3.398437 3.46875 20.539062 6.6875 23.941406 10.160156 c 3.398437 3.472656 -6.953125 7.15625 -3.554687 10.628906 c 3.398437 3.472656 11.253906 0.179688 12.726562 8.195313 c 1.046875 5.730469 14.15625 2.464843 20.570312 -2.226563 c 3.394532 -3.476562 -6.5 -3.148437 -3.101562 -6.621094 c 8.445312 -8.640624 16.3125 -3.140624 19.203125 -11.796874 c 1.425781 -4.277344 -12.4375 -6.59375 -9.035156 -10.066407 c 9.773437 -5.707031 43.554687 -9.421875 27.527343 -25.449219 l -40.328124 -40.917968 c -2.464844 -2.367188 -5.753907 -3.5625 -9.015626 -3.570313 z m 0 0" fill="url(#b)"/>
                    <path d="m 63.101562 12.300781 c -3.257812 -0.007812 -6.484374 1.175781 -8.820312 3.570313 l -38.90625 39.507812 c -13.144531 16.28125 8.945312 14.386719 18.414062 19.074219 c 3.398438 3.472656 -13.015624 6.035156 -9.621093 9.511719 c 3.398437 3.46875 20.539062 6.6875 23.941406 10.160156 c 3.398437 3.472656 -6.953125 7.15625 -3.554687 10.628906 c 3.398437 3.472656 11.253906 0.179688 12.726562 8.195313 c 1.046875 5.730469 14.15625 2.464843 20.570312 -2.226563 c 3.394532 -3.476562 -6.5 -3.148437 -3.101562 -6.621094 c 8.445312 -8.640624 16.3125 -3.140624 19.203125 -11.796874 c 1.425781 -4.277344 -12.4375 -6.59375 -9.035156 -10.066407 c 9.773437 -5.707031 43.554687 -9.421875 27.527343 -25.449219 l -40.328124 -40.917968 c -2.464844 -2.367188 -5.753907 -3.5625 -9.015626 -3.570313 z m 0 0" fill="url(#c)"/>
                    <path d="m 44.96875 76.605469 c 1.039062 0.648437 16.765625 3.839843 20.605469 4.480469 c 1.335937 0.277343 0.390625 1.652343 -1.445313 2.578124 c -4.140625 1.101563 -24.226562 -7.058593 -19.160156 -7.058593 z m 0 0" fill="url(#d)"/>
                    <path d="m 63.09375 12.199219 c -0.445312 0 -0.890625 0.023437 -1.332031 0.066406 c -2.789063 0.277344 -5.464844 1.441406 -7.480469 3.503906 l -19.886719 20.148438 c -2.015625 3.5 -1.125 6.335937 3.125 6.335937 c 0 0 7.96875 1.113282 10.421875 0 c 2.457032 -1.109375 4.875 -9.910156 6.816406 -11.792968 c 1.945313 -1.882813 2.175782 16.09375 4.199219 16.898437 c 2.027344 0.808594 9.90625 -8.304687 12.6875 -8.015625 c 2.785157 0.289062 6.347657 3.59375 7.921875 4.183594 c 1.578125 0.589844 1.890625 -9.832032 1.867188 -11.234375 c -0.023438 -1.402344 9.480468 7.585937 9.480468 7.585937 c 0.542969 -1.648437 0.84375 -3.296875 0.304688 -4.785156 c 0 0 0.003906 0 0 0 l -19.097656 -19.324219 c -2.46875 -2.367187 -5.757813 -3.5625 -9.015625 -3.570312 c -0.007813 0 -0.007813 0 -0.015625 0 z m 0 0" fill="#ffffff"/>
                    <path d="m 63.105469 12 c -3.261719 -0.007812 -6.484375 1.175781 -8.824219 3.570312 l -17.824219 18.234376 c -2.488281 3.640624 -1.84375 6.742187 2.472657 6.742187 c 0 0 7.515624 1.050781 9.832031 0 c 2.316406 -1.050781 4.597656 -9.351563 6.429687 -11.128906 c 1.835938 -1.777344 2.050782 15.183593 3.964844 15.945312 s 9.34375 -7.835937 11.96875 -7.5625 c 2.628906 0.269531 5.988281 3.386719 7.476562 3.945313 c 1.488282 0.558594 1.78125 -9.277344 1.757813 -10.601563 c -0.019531 -1.320312 8.949219 7.160157 8.949219 7.160157 c 0.597656 -1.8125 0.878906 -3.628907 -0.03125 -5.199219 c -0.003906 0 -0.003906 0 -0.003906 -0.003907 l -17.152344 -17.53125 c -2.46875 -2.367187 -5.757813 -3.5625 -9.015625 -3.570312 z m 0 0" fill="url(#e)"/>
                </g>
            </g>
        </g>
    </mask>
    <mask id="i">
        <g filter="url(#a)">
            <rect fill-opacity="0.8" height="184.32" width="184.32" x="-28.16" y="-28.16"/>
        </g>
    </mask>
    <linearGradient id="j" gradientTransform="matrix(0 0.37 -0.98462 0 295.38501 -30.360001)" gradientUnits="userSpaceOnUse" x1="300" x2="428" y1="235" y2="235">
        <stop offset="0" stop-color="#f9f06b"/>
        <stop offset="1" stop-color="#f5c211"/>
    </linearGradient>
    <clipPath id="k">
        <rect height="128" width="128"/>
    </clipPath>
    <clipPath id="l">
        <rect height="128" width="128"/>
    </clipPath>
    <path d="m 97.140625 96.363281 c -4.441406 3.984375 0.496094 8.027344 4.875 5.453125 c 0.976563 -0.992187 -0.023437 -4.460937 -4.875 -5.453125 z m 0 0" fill="#0d0b0f"/>
    <path d="m 106.109375 87.550781 c -3.164063 0.109375 -6.285156 1.726563 -7.144531 4.753907 c 0 1.976562 14.554687 3.269531 14.554687 -0.464844 c -1.039062 -3 -4.246093 -4.398438 -7.410156 -4.289063 z m 0 0" fill="#0c0b0f"/>
    <path d="m 39.539062 96.105469 c -0.246093 -0.003907 -0.496093 0 -0.746093 0.011719 c -4.410157 0.234374 -9.140625 3.425781 -5.378907 6.683593 c 3.445313 2.980469 8.769532 -0.738281 10.363282 -4.898437 c -0.914063 -1.210938 -2.511719 -1.75 -4.238282 -1.796875 z m 0 0" fill="#0e0d11"/>
    <path d="m 63.101562 12.300781 c -3.257812 -0.007812 -6.484374 1.175781 -8.820312 3.570313 l -38.90625 39.507812 c -13.144531 16.28125 8.945312 14.386719 18.414062 19.074219 c 3.398438 3.472656 -13.015624 6.035156 -9.621093 9.511719 c 3.398437 3.46875 20.539062 6.6875 23.941406 10.160156 c 3.398437 3.472656 -6.953125 7.15625 -3.554687 10.628906 c 3.398437 3.472656 11.253906 0.179688 12.726562 8.195313 c 1.046875 5.730469 14.15625 2.464843 20.570312 -2.226563 c 3.394532 -3.476562 -6.5 -3.148437 -3.101562 -6.621094 c 8.445312 -8.640624 16.3125 -3.140624 19.203125 -11.796874 c 1.425781 -4.277344 -12.4375 -6.59375 -9.035156 -10.066407 c 9.773437 -5.707031 43.554687 -9.421875 27.527343 -25.449219 l -40.328124 -40.917968 c -2.464844 -2.367188 -5.753907 -3.5625 -9.015626 -3.570313 z m 0 0" fill="url(#b)"/>
    <path d="m 63.101562 12.300781 c -3.257812 -0.007812 -6.484374 1.175781 -8.820312 3.570313 l -38.90625 39.507812 c -13.144531 16.28125 8.945312 14.386719 18.414062 19.074219 c 3.398438 3.472656 -13.015624 6.035156 -9.621093 9.511719 c 3.398437 3.46875 20.539062 6.6875 23.941406 10.160156 c 3.398437 3.472656 -6.953125 7.15625 -3.554687 10.628906 c 3.398437 3.472656 11.253906 0.179688 12.726562 8.195313 c 1.046875 5.730469 14.15625 2.464843 20.570312 -2.226563 c 3.394532 -3.476562 -6.5 -3.148437 -3.101562 -6.621094 c 8.445312 -8.640624 16.3125 -3.140624 19.203125 -11.796874 c 1.425781 -4.277344 -12.4375 -6.59375 -9.035156 -10.066407 c 9.773437 -5.707031 43.554687 -9.421875 27.527343 -25.449219 l -40.328124 -40.917968 c -2.464844 -2.367188 -5.753907 -3.5625 -9.015626 -3.570313 z m 0 0" fill="url(#c)"/>
    <path d="m 44.96875 76.605469 c 1.039062 0.648437 16.765625 3.839843 20.605469 4.480469 c 1.335937 0.277343 0.390625 1.652343 -1.445313 2.578124 c -4.140625 1.101563 -24.226562 -7.058593 -19.160156 -7.058593 z m 0 0" fill="url(#d)"/>
    <path d="m 63.09375 12.199219 c -0.445312 0 -0.890625 0.023437 -1.332031 0.066406 c -2.789063 0.277344 -5.464844 1.441406 -7.480469 3.503906 l -19.886719 20.148438 c -2.015625 3.5 -1.125 6.335937 3.125 6.335937 c 0 0 7.96875 1.113282 10.421875 0 c 2.457032 -1.109375 4.875 -9.910156 6.816406 -11.792968 c 1.945313 -1.882813 2.175782 16.09375 4.199219 16.898437 c 2.027344 0.808594 9.90625 -8.304687 12.6875 -8.015625 c 2.785157 0.289062 6.347657 3.59375 7.921875 4.183594 c 1.578125 0.589844 1.890625 -9.832032 1.867188 -11.234375 c -0.023438 -1.402344 9.480468 7.585937 9.480468 7.585937 c 0.542969 -1.648437 0.84375 -3.296875 0.304688 -4.785156 c 0 0 0.003906 0 0 0 l -19.097656 -19.324219 c -2.46875 -2.367187 -5.757813 -3.5625 -9.015625 -3.570312 c -0.007813 0 -0.007813 0 -0.015625 0 z m 0 0" fill="#ffffff"/>
    <path d="m 63.105469 12 c -3.261719 -0.007812 -6.484375 1.175781 -8.824219 3.570312 l -17.824219 18.234376 c -2.488281 3.640624 -1.84375 6.742187 2.472657 6.742187 c 0 0 7.515624 1.050781 9.832031 0 c 2.316406 -1.050781 4.597656 -9.351563 6.429687 -11.128906 c 1.835938 -1.777344 2.050782 15.183593 3.964844 15.945312 s 9.34375 -7.835937 11.96875 -7.5625 c 2.628906 0.269531 5.988281 3.386719 7.476562 3.945313 c 1.488282 0.558594 1.78125 -9.277344 1.757813 -10.601563 c -0.019531 -1.320312 8.949219 7.160157 8.949219 7.160157 c 0.597656 -1.8125 0.878906 -3.628907 -0.03125 -5.199219 c -0.003906 0 -0.003906 0 -0.003906 -0.003907 l -17.152344 -17.53125 c -2.46875 -2.367187 -5.757813 -3.5625 -9.015625 -3.570312 z m 0 0" fill="url(#e)"/>
    <g mask="url(#h)">
        <g clip-path="url(#l)">
            <g mask="url(#i)">
                <g clip-path="url(#k)">
                    <path d="m 128 80.640625 v 47.359375 h -128 v -47.359375 z m 0 0" fill="url(#j)"/>
                    <path d="m 13.308594 80.640625 l 47.355468 47.359375 h 21.214844 l -47.359375 -47.359375 z m 42.421875 0 l 47.363281 47.359375 h 21.214844 l -47.363282 -47.359375 z m 42.429687 0 l 29.839844 29.839844 v -21.210938 l -8.628906 -8.628906 z m -98.160156 7.90625 v 21.214844 l 18.238281 18.238281 h 21.214844 z m 0 0"/>
                </g>
            </g>
        </g>
    </g>
</svg>
