<?xml version="1.0" encoding="UTF-8"?>
<svg height="128px" viewBox="0 0 128 128" width="128px" xmlns="http://www.w3.org/2000/svg" xmlns:xlink="http://www.w3.org/1999/xlink">
    <linearGradient id="a" gradientUnits="userSpaceOnUse" x1="8.00000663281" x2="120.0000357437" y1="64.159991526" y2="64.159991526">
        <stop offset="0.15" stop-color="#241f31"/>
        <stop offset="0.4" stop-color="#3d3846"/>
        <stop offset="0.497863" stop-color="#3d3846"/>
        <stop offset="0.6" stop-color="#3d3846"/>
        <stop offset="0.85" stop-color="#241f31"/>
    </linearGradient>
    <radialGradient id="b" cx="64.630669" cy="221.871338" gradientTransform="matrix(4.955705 0 0 0.704458 -254.941072 -112.378674)" gradientUnits="userSpaceOnUse" r="52.693447">
        <stop offset="0" stop-opacity="0"/>
        <stop offset="1" stop-opacity="0.75"/>
    </radialGradient>
    <linearGradient id="c" gradientUnits="userSpaceOnUse" x1="64.00030175452" x2="64.00030175452" y1="8.00006482758" y2="120.00065188276">
        <stop offset="0" stop-color="#3d3846"/>
        <stop offset="0.5" stop-color="#241f31"/>
        <stop offset="1" stop-color="#5e5c64"/>
    </linearGradient>
    <radialGradient id="d" cx="55.178123" cy="252.186935" gradientTransform="matrix(1.338639 0.448915 -0.113556 0.338618 9.39836 -28.962456)" gradientUnits="userSpaceOnUse" r="11.022862">
        <stop offset="0" stop-color="#ffffff" stop-opacity="0.9"/>
        <stop offset="1" stop-color="#ffffff" stop-opacity="0.7"/>
    </radialGradient>
    <radialGradient id="e" cx="63.394104" cy="183.17778" gradientTransform="matrix(1.062751 0 0 0.647293 -4.016046 -103.424354)" gradientUnits="userSpaceOnUse" r="27.42766">
        <stop offset="0" stop-color="#ffffff"/>
        <stop offset="0.998733" stop-color="#f6f5f4"/>
    </radialGradient>
    <radialGradient id="f" cx="62.519268" cy="174.539536" gradientTransform="matrix(-1.765716 -0.122587 0.0915664 -1.318901 158.182486 247.680698)" gradientUnits="userSpaceOnUse" r="27.494814">
        <stop offset="0.3" stop-opacity="0"/>
        <stop offset="1" stop-opacity="0.02"/>
    </radialGradient>
    <path d="m 99.222656 98.394531 c -4.722656 4.234375 0.527344 8.53125 5.179688 5.796875 c 1.039062 -1.054687 -0.027344 -4.742187 -5.179688 -5.796875 z m 0 0" fill="#0d0b0f"/>
    <path d="m 108.75 89.027344 c -3.359375 0.117187 -6.675781 1.835937 -7.589844 5.054687 c 0 2.101563 15.464844 3.476563 15.464844 -0.496093 c -1.101562 -3.1875 -4.511719 -4.671876 -7.875 -4.558594 z m 0 0" fill="#0c0b0f"/>
    <path d="m 38.003906 98.121094 c -0.261718 -0.007813 -0.527344 -0.003906 -0.792968 0.011718 c -4.6875 0.25 -9.714844 3.640626 -5.714844 7.105469 c 3.660156 3.164063 9.316406 -0.789062 11.011718 -5.207031 c -0.96875 -1.289062 -2.667968 -1.863281 -4.503906 -1.910156 z m 0 0" fill="#0e0d11"/>
    <path d="m 54.90625 27.109375 c -0.085938 0.007813 -0.175781 0.050781 -0.265625 0.140625 c -1.949219 1.886719 -4.375 10.710938 -6.835937 11.824219 c -2.460938 1.117187 -10.445313 0 -10.445313 0 c -4.855469 -0.578125 -5.25 -3.050781 -2.972656 -6.636719 l -22.0625 22.402344 c -13.96875 17.300781 9.507812 15.289062 19.570312 20.269531 c 3.609375 3.691406 -13.835937 6.414063 -10.226562 10.105469 c 3.613281 3.691406 21.828125 7.109375 25.445312 10.800781 c 3.609375 3.6875 -7.390625 7.605469 -3.777343 11.292969 c 3.609374 3.691406 11.957031 0.195312 13.523437 8.714844 c 1.113281 6.085937 15.046875 2.617187 21.859375 -2.371094 c 3.609375 -3.691406 -6.90625 -3.347656 -3.292969 -7.035156 c 8.976563 -9.179688 17.332031 -3.335938 20.40625 -12.535157 c 1.515625 -4.542969 -13.21875 -7.007812 -9.601562 -10.699219 c 10.386719 -6.066406 46.289062 -10.011718 29.253906 -27.046874 l -24.421875 -24.78125 c 0.722656 1.574218 0.417969 3.359374 -0.164062 5.136718 c 0 0 -9.535157 -9.011718 -9.507813 -7.605468 c 0.023437 1.40625 -0.292969 11.859374 -1.871094 11.265624 c -1.582031 -0.59375 -5.152343 -3.90625 -7.945312 -4.195312 c -2.792969 -0.292969 -10.691407 8.847656 -12.722657 8.039062 c -1.9375 -0.769531 -2.234374 -17.183593 -3.945312 -17.085937 z m 0 0" fill="url(#a)"/>
    <path d="m 54.90625 27.109375 c -0.085938 0.007813 -0.175781 0.050781 -0.265625 0.140625 c -1.949219 1.886719 -4.375 10.710938 -6.835937 11.824219 c -2.460938 1.117187 -10.445313 0 -10.445313 0 c -4.855469 -0.578125 -5.25 -3.050781 -2.972656 -6.636719 l -22.0625 22.402344 c -13.96875 17.300781 9.507812 15.289062 19.570312 20.269531 c 3.609375 3.691406 -13.835937 6.414063 -10.226562 10.105469 c 3.613281 3.691406 21.828125 7.109375 25.445312 10.800781 c 3.609375 3.6875 -7.390625 7.605469 -3.777343 11.292969 c 3.609374 3.691406 11.957031 0.195312 13.523437 8.714844 c 1.113281 6.085937 15.046875 2.617187 21.859375 -2.371094 c 3.609375 -3.691406 -6.90625 -3.347656 -3.292969 -7.035156 c 8.976563 -9.179688 17.332031 -3.335938 20.40625 -12.535157 c 1.515625 -4.542969 -13.21875 -7.007812 -9.601562 -10.699219 c 10.386719 -6.066406 46.289062 -10.011718 29.253906 -27.046874 l -24.421875 -24.78125 c 0.722656 1.574218 0.417969 3.359374 -0.164062 5.136718 c 0 0 -9.535157 -9.011718 -9.507813 -7.605468 c 0.023437 1.40625 -0.292969 11.859374 -1.871094 11.265624 c -1.582031 -0.59375 -5.152343 -3.90625 -7.945312 -4.195312 c -2.792969 -0.292969 -10.691407 8.847656 -12.722657 8.039062 c -1.9375 -0.769531 -2.234374 -17.183593 -3.945312 -17.085937 z m 0 0" fill="url(#b)"/>
    <path d="m 63.046875 8.738281 c -0.867187 -0.003906 -1.730469 0.074219 -2.574219 0.230469 c 0.84375 -0.15625 1.707032 -0.234375 2.574219 -0.230469 z m 27.542969 22.433594 c 0.617187 1.054687 0.992187 2.21875 0.824218 3.421875 l 22.640626 23.140625 c 0.003906 0.003906 0.011718 0.011719 0.015624 0.015625 c 1.992188 1.992188 3.101563 3.703125 3.589844 5.066406 c 0.488282 1.359375 0.433594 2.34375 0.039063 3.34375 c -0.789063 1.992188 -3.527344 4.15625 -7.417969 6.007813 c -3.890625 1.851562 -8.761719 3.433593 -13.324219 4.925781 s -8.785156 2.84375 -11.734375 4.566406 c -0.152344 0.085938 -0.296875 0.199219 -0.417968 0.324219 c -0.730469 0.742187 -1.261719 1.882813 -1.121094 2.984375 c 0.136718 1.097656 0.742187 1.859375 1.347656 2.445312 c 1.203125 1.164063 2.734375 1.933594 4.261719 2.757813 c 1.527343 0.824219 3.03125 1.664063 3.886719 2.375 c 0.425781 0.355469 0.664062 0.671875 0.730468 0.808594 c 0.019532 0.035156 0.035156 0.054687 0.042969 0.0625 v 0.003906 h -0.003906 l -0.003907 0.003906 v 0.003907 c -0.003906 0.003906 -0.007812 0.011718 -0.011718 0.019531 c -0.660156 1.980469 -1.429688 2.863281 -2.417969 3.511719 c -0.988281 0.648437 -2.359375 1.035156 -4.125 1.449218 c -3.539063 0.820313 -8.542969 1.84375 -13.398437 6.808594 c -0.613282 0.628906 -1.113282 1.328125 -1.28125 2.246094 c -0.171876 0.917968 0.167968 1.917968 0.632812 2.515625 c 0.925781 1.195312 1.992188 1.535156 2.855469 1.953125 c 0.453125 0.21875 0.492187 0.257812 0.753906 0.421875 c -3.089844 2.105469 -7.722656 4.027343 -11.625 4.664062 c -2.054687 0.335938 -3.878906 0.300781 -4.988281 -0.019531 c -1.105469 -0.320312 -1.375 -0.574219 -1.511719 -1.335938 c -0.453125 -2.464843 -1.5 -4.339843 -2.914063 -5.582031 c -1.417968 -1.238281 -3.070312 -1.808593 -4.585937 -2.167969 c -3.03125 -0.722656 -5.515625 -0.933593 -6.5625 -2 c -0.140625 -0.144531 -0.171875 -0.199218 -0.171875 -0.214843 v -0.003907 h 0.003906 c 0 -0.019531 0.007813 -0.101562 0.105469 -0.296874 c 0.238281 -0.484376 1.03125 -1.390626 1.957031 -2.339844 c 0.921875 -0.953125 1.976563 -1.949219 2.671875 -3.351563 c 0.347657 -0.703125 0.601563 -1.570312 0.496094 -2.519531 c -0.105469 -0.945312 -0.59375 -1.863281 -1.285156 -2.570312 c -1.382813 -1.414063 -3.324219 -2.257813 -5.6875 -3.1875 c -2.363281 -0.933594 -5.117188 -1.828126 -7.84375 -2.714844 c -2.730469 -0.890625 -5.4375 -1.769532 -7.617188 -2.632813 c -1.914062 -0.753906 -3.128906 -1.496093 -3.761719 -1.984375 c 0.777344 -0.570312 2.324219 -1.347656 3.992188 -2.121094 c 1.726562 -0.800781 3.511719 -1.578124 4.914062 -2.667968 c 0.703126 -0.546875 1.40625 -1.191406 1.726563 -2.304688 c 0.320313 -1.117187 -0.164063 -2.5 -0.9375 -3.292968 c -0.160156 -0.160157 -0.34375 -0.292969 -0.546875 -0.390626 c -5.683594 -2.816406 -14.066406 -3.515624 -18.902344 -5.566406 c -2.417968 -1.023437 -3.597656 -2.085937 -3.832031 -3.484375 c -0.238281 -1.390625 0.507813 -4.035156 3.8125 -8.140625 l 19.226563 -19.667968 c -0.207032 -1.199219 0.679687 -2.746094 1.914062 -4.546876 l -22.675781 22.925782 c -13.96875 17.300781 9.507812 15.289062 19.570312 20.269531 c 3.609375 3.691406 -13.835937 6.414063 -10.222656 10.109375 c 3.609375 3.6875 21.824219 7.105469 25.441406 10.796875 c 3.609375 3.6875 -7.390625 7.605469 -3.777343 11.296875 c 3.609374 3.6875 11.957031 0.191406 13.523437 8.710938 c 1.113281 6.089843 15.046875 2.617187 21.859375 -2.367188 c 3.609375 -3.695312 -6.90625 -3.347656 -3.292969 -7.039062 c 8.976563 -9.179688 17.332031 -3.335938 20.40625 -12.535157 c 1.515625 -4.546875 -13.21875 -7.007812 -9.601562 -10.695312 c 10.386719 -6.066407 46.289062 -10.015625 29.253906 -27.050781 z m 0 0" fill="url(#c)"/>
    <path d="m 43.773438 77.398438 c 1.105468 0.6875 17.816406 4.082031 21.902343 4.757812 c 1.414063 0.296875 0.410157 1.757812 -1.539062 2.742188 c -4.402344 1.171874 -25.746094 -7.5 -20.363281 -7.5 z m 0 0" fill="url(#d)"/>
    <path d="m 31.839844 34.871094 l -0.03125 0.027344 v 0.003906 c -1.617188 3.171875 -0.8125 5.332031 3.789062 5.882812 c 0.003906 0 8.625 1.089844 11.402344 0 c 2.65625 -1.042968 4.800781 -10.5 6.855469 -12.496094 c 2.058593 -1.992187 2.304687 17.046876 4.453125 17.902344 c 2.144531 0.851563 10.488281 -8.800781 13.4375 -8.492187 c 2.945312 0.304687 6.71875 3.804687 8.386718 4.429687 c 1.671876 0.628906 2.003907 -10.410156 1.976563 -11.898437 c -0.023437 -1.484375 10.042969 8.035156 10.042969 8.035156 c 0.664062 -2.011719 0.984375 -4.035156 -0.007813 -5.785156 l -19.515625 -18.949219 c -0.023437 -0.019531 -0.042968 -0.039062 -0.066406 -0.0625 c -2.699219 -2.441406 -6.207031 -3.695312 -9.695312 -3.730469 c -3.402344 0.035157 -6.753907 1.292969 -9.199219 3.792969 z m 0 0" fill="#ffffff"/>
    <path d="m 63.046875 8.738281 c -3.460937 -0.007812 -6.890625 1.25 -9.375 3.792969 l -18.941406 19.382812 c -2.648438 3.867188 -2.464844 6.554688 2.625 7.160157 c 0 0 7.988281 1.117187 10.449219 0 c 2.460937 -1.113281 4.886718 -9.9375 6.835937 -11.824219 c 1.949219 -1.890625 2.179687 16.136719 4.210937 16.945312 c 2.03125 0.808594 9.929688 -8.332031 12.722657 -8.039062 c 2.792969 0.289062 6.363281 3.601562 7.945312 4.195312 c 1.578125 0.589844 1.894531 -9.859374 1.867188 -11.265624 c -0.023438 -1.40625 9.511719 7.605468 9.511719 7.605468 c 0.632812 -1.925781 0.933593 -3.855468 -0.035157 -5.523437 c -0.003906 0 -0.003906 -0.003907 -0.003906 -0.003907 l -18.230469 -18.632812 c -2.621094 -2.515625 -6.117187 -3.785156 -9.582031 -3.792969 z m 0 0" fill="url(#e)"/>
    <path d="m 63.046875 8.738281 c -3.460937 -0.007812 -6.890625 1.25 -9.375 3.792969 l -18.941406 19.382812 c -2.648438 3.867188 -2.464844 6.554688 2.625 7.160157 c 0 0 7.988281 1.117187 10.449219 0 c 2.460937 -1.113281 4.886718 -9.9375 6.835937 -11.824219 c 1.949219 -1.890625 2.179687 16.136719 4.210937 16.945312 c 2.03125 0.808594 9.929688 -8.332031 12.722657 -8.039062 c 2.792969 0.289062 6.363281 3.601562 7.945312 4.195312 c 1.578125 0.589844 1.894531 -9.859374 1.867188 -11.265624 c -0.023438 -1.40625 9.511719 7.605468 9.511719 7.605468 c 0.632812 -1.925781 0.933593 -3.855468 -0.035157 -5.523437 c -0.003906 0 -0.003906 -0.003907 -0.003906 -0.003907 l -18.230469 -18.632812 c -2.621094 -2.515625 -6.117187 -3.785156 -9.582031 -3.792969 z m 0 0" fill="url(#f)"/>
</svg>
