<?xml version="1.0" encoding="UTF-8"?>
<svg height="128px" viewBox="0 0 128 128" width="128px" xmlns="http://www.w3.org/2000/svg">
    <path d="m 51.429688 44.277344 v 4 c 0 17.824218 14.453124 32.277344 32.285156 32.277344 c 17.832031 0 32.285156 -14.453126 32.285156 -32.277344 v -4 h -0.007812 c -1.917969 16.367187 -15.792969 28.707031 -32.277344 28.703125 c -16.484375 0.003906 -30.359375 -12.335938 -32.277344 -28.703125 z m 0 0" fill="#1f8254"/>
    <path d="m 91.628906 19.871094 c -4.351562 -0.027344 -8.515625 1.675781 -11.574218 4.734375 c -3.867188 3.871093 -5.363282 9.21875 -4.496094 14.269531 h 4.832031 c 0.269531 -2.457031 1.34375 -4.835938 3.21875 -6.710938 c 2.128906 -2.125 5.023437 -3.3125 8.046875 -3.292968 c 3.027344 0.019531 5.933594 1.238281 8.085938 3.390625 c 1.863281 1.863281 2.960937 4.199219 3.285156 6.613281 h 4.929687 c 0.734375 -4.984375 -0.835937 -10.265625 -4.699219 -14.128906 c -3.097656 -3.09375 -7.277343 -4.847656 -11.628906 -4.875 z m 0 0" fill="#218b5a"/>
    <path d="m 83.714844 12 c -17.832032 0 -32.285156 14.449219 -32.285156 32.277344 c 0 17.824218 14.453124 32.277344 32.285156 32.273437 c 17.832031 0.003907 32.285156 -14.449219 32.285156 -32.273437 c 0 -17.828125 -14.453125 -32.277344 -32.285156 -32.277344 z m 7.941406 12.871094 c 3.027344 0.019531 5.933594 1.238281 8.085938 3.390625 c 4.480468 4.480469 4.523437 11.699219 0.09375 16.128906 c -4.425782 4.425781 -11.644532 4.382813 -16.128907 -0.097656 c -4.480469 -4.480469 -4.523437 -11.699219 -0.097656 -16.128907 c 2.128906 -2.125 5.023437 -3.3125 8.046875 -3.292968 z m 0 0" fill="#52e187"/>
    <path d="m 52.8125 57.644531 l -40.8125 40.808594 v 19.546875 l 19.546875 -0.003906 l 8.003906 -9.183594 l 9.183594 -0.003906 l 0.003906 -9.179688 h 13.890625 l 0.003906 -13.894531 c 2.882813 -2.554687 5.765626 -5.109375 8.652344 -7.660156 v -2 h -3.988281 c -6.882813 -4.070313 -12.121094 -10.625 -14.484375 -18.429688 z m 0 0" fill="#959491"/>
    <path d="m 52.8125 55.644531 l -40.8125 40.808594 v 19.546875 l 19.546875 -0.003906 l 8.003906 -9.183594 l 9.183594 -0.003906 l 0.003906 -9.179688 h 13.890625 l 0.003906 -13.894531 c 2.882813 -2.554687 5.765626 -5.109375 8.648438 -7.660156 c -8.828125 -3.6875 -15.667969 -11.179688 -18.46875 -20.429688 z m 0 0" fill="#deddda"/>
    <path d="m 51.210938 63.84375 l 3.296874 3.292969 l -32.617187 32.621093 l -3.296875 -3.296874 z m 0 0" fill="#eeedeb"/>
</svg>
