<?xml version="1.0" encoding="UTF-8"?>
<svg height="128px" viewBox="0 0 128 128" width="128px" xmlns="http://www.w3.org/2000/svg" xmlns:xlink="http://www.w3.org/1999/xlink">
    <clipPath id="a">
        <rect height="152" width="192"/>
    </clipPath>
    <path d="m 106.484375 21.515625 c -12.683594 -12.679687 -33.230469 -12.691406 -45.910156 -0.011719 c -12.679688 12.679688 -12.640625 33.167969 0.039062 45.847656 c 12.679688 12.679688 33.203125 12.753907 45.882813 0.074219 c 12.679687 -12.679687 12.667968 -33.226562 -0.011719 -45.910156 z m -8.730469 8.730469 c 4.09375 4.09375 4.132813 10.691406 0.089844 14.738281 c -4.046875 4.046875 -10.644531 4.003906 -14.738281 -0.089844 s -4.136719 -10.691406 -0.089844 -14.738281 c 4.046875 -4.042969 10.644531 -4.003906 14.738281 0.089844 z m 0 0" fill="#008000"/>
    <g clip-path="url(#a)" transform="matrix(1 0 0 1 -8 -16)">
        <path d="m 78.8125 92.085938 c -4.191406 -1.585938 -8.121094 -4.066407 -11.492188 -7.441407 c -3.367187 -3.363281 -5.839843 -7.277343 -7.421874 -11.449219 l -39.898438 39.894532 v 18.910156 h 18.910156 l 7.746094 -8.886719 h 8.882812 l 0.003907 -8.886719 h 13.4375 l 0.003906 -13.441406 z m -20.875 -10.554688 l 3.191406 3.191406 l -31.558594 31.558594 l -3.191406 -3.191406 z m 0 0" fill="#999999"/>
    </g>
</svg>
